{"glyphs":{"0":{"ha":788,"x_min":56,"x_max":731,"o":"m 731 522 l 731 465 q 724 293 731 363 q 696 163 717 224 q 638 66 675 101 q 540 11 600 31 q 393 -8 479 -8 q 247 12 307 -8 q 149 67 186 32 q 90 163 111 101 q 63 294 69 225 q 56 468 56 364 l 56 521 q 89 836 56 735 q 147 931 110 897 q 393 997 226 997 q 659 892 588 997 q 731 522 731 786 m 544 422 l 544 576 q 514 769 543 714 q 393 825 485 825 q 272 770 301 825 q 242 582 243 715 l 242 422 q 271 219 243 274 q 394 164 299 164 q 517 217 490 164 q 544 422 543 269 z "},"1":{"ha":608,"x_min":142,"x_max":451,"o":"m 451 0 l 263 0 l 263 811 l 142 856 l 142 990 l 306 990 q 424 957 397 990 q 451 825 451 924 l 451 0 z "},"2":{"ha":761,"x_min":60,"x_max":690,"o":"m 681 0 l 207 0 q 103 25 146 0 q 60 108 60 50 q 94 203 60 157 q 136 250 107 218 l 285 415 q 386 531 349 479 q 442 610 424 583 q 469 656 460 636 q 493 736 493 703 q 467 802 493 769 q 374 835 442 835 q 281 796 307 835 q 256 686 256 757 l 74 686 q 85 808 74 757 q 128 904 96 858 q 386 997 190 997 q 611 938 532 997 q 690 767 690 878 q 659 626 690 699 q 593 508 628 553 q 511 410 558 464 q 456 344 464 356 l 299 163 l 681 163 l 681 0 z "},"3":{"ha":743,"x_min":79,"x_max":689,"o":"m 332 451 l 363 604 l 449 564 q 501 738 501 631 q 469 799 501 765 q 367 832 436 832 q 274 801 299 832 q 249 686 249 771 l 79 686 q 152 922 79 846 q 372 997 225 997 q 675 739 675 997 q 583 493 675 588 q 689 267 689 433 q 606 65 689 138 q 375 -8 524 -8 q 153 68 226 -8 q 81 272 81 144 l 257 272 q 263 226 257 249 q 296 180 269 203 q 380 157 322 157 q 473 194 438 157 q 508 276 508 231 q 491 347 508 325 q 465 380 474 369 q 434 403 457 390 q 403 420 411 415 q 366 437 394 425 q 332 451 338 449 z "},"4":{"ha":819,"x_min":51,"x_max":764,"o":"m 764 213 l 653 213 l 653 0 l 481 0 l 481 213 l 193 213 q 87 242 122 213 q 51 325 51 272 q 75 424 51 353 q 207 788 99 494 l 400 788 l 249 383 l 481 383 l 481 989 l 653 989 l 653 383 l 764 383 l 764 213 z "},"5":{"ha":765,"x_min":50,"x_max":658,"o":"m 107 972 l 631 972 l 631 818 l 285 818 l 285 663 q 578 575 499 663 q 658 319 658 488 q 342 -8 658 -8 q 123 68 196 -8 q 50 272 50 144 l 226 272 q 233 226 226 249 q 265 180 239 203 q 336 157 292 157 q 444 198 410 157 q 478 294 478 239 q 470 382 478 350 q 438 447 463 414 q 214 517 388 517 l 107 517 l 107 972 z "},"6":{"ha":763,"x_min":57,"x_max":706,"o":"m 697 685 l 526 686 q 490 794 517 764 q 394 825 464 825 q 272 767 297 825 q 243 538 246 708 l 400 606 q 635 535 564 606 q 706 299 706 465 q 382 -8 706 -8 q 140 72 222 -8 q 57 308 57 151 l 57 521 q 92 836 57 735 q 150 931 111 897 q 394 997 228 997 q 697 685 697 997 m 386 161 q 526 297 526 161 q 503 418 526 378 q 404 458 479 458 l 242 371 q 274 209 242 257 q 386 161 306 161 z "},"7":{"ha":768,"x_min":76,"x_max":706,"o":"m 706 831 l 340 0 l 146 0 l 511 817 l 76 817 l 76 990 l 706 990 l 706 831 z "},"8":{"ha":778,"x_min":72,"x_max":706,"o":"m 72 274 q 99 401 72 331 q 160 524 125 472 q 86 725 86 594 q 389 997 86 997 q 622 931 539 997 q 706 724 706 864 q 607 467 706 583 q 706 274 706 400 q 628 54 706 117 q 392 -8 550 -8 q 153 63 235 -8 q 72 274 72 135 m 271 708 q 316 624 271 663 q 474 532 361 585 q 533 703 533 607 q 499 797 533 761 q 393 832 464 832 q 271 708 271 832 m 253 268 q 288 192 253 221 q 394 163 324 163 q 494 189 464 163 q 525 271 525 215 q 471 357 525 310 q 303 451 417 404 q 253 268 253 375 z "},"9":{"ha":763,"x_min":57,"x_max":706,"o":"m 706 703 l 706 307 q 624 71 706 150 q 393 -8 543 -8 q 170 68 243 -8 q 97 272 97 144 l 274 272 q 280 226 274 249 q 313 180 286 203 q 383 157 339 157 q 491 198 457 157 q 525 304 525 239 l 525 450 l 374 364 q 57 699 57 364 q 136 936 57 867 q 381 1006 215 1006 q 626 938 547 1006 q 706 703 706 871 m 386 831 q 246 694 246 831 q 276 576 246 618 q 382 533 306 533 l 531 621 q 499 783 531 735 q 386 831 467 831 z "}," ":{"ha":322,"x_min":0,"x_max":0,"o":""},"!":{"ha":482,"x_min":156,"x_max":382,"o":"m 379 989 l 338 389 q 310 328 332 350 q 263 307 289 307 q 216 329 236 307 q 196 389 196 351 l 156 989 l 379 989 m 360 187 q 371 176 360 187 q 382 96 382 165 q 360 4 382 26 q 269 -18 339 -18 q 178 4 200 -18 q 156 96 156 26 q 178 187 156 165 q 269 208 200 208 q 360 187 339 208 z "},"\"":{"ha":644,"x_min":94,"x_max":550,"o":"m 251 696 l 108 696 l 94 989 l 265 989 l 251 696 m 536 696 l 393 696 l 379 989 l 550 989 l 536 696 z "},"#":{"ha":960,"x_min":86,"x_max":881,"o":"m 86 249 l 86 417 l 203 417 l 214 597 l 119 597 l 119 765 l 225 765 l 239 997 l 432 997 l 418 765 l 592 765 l 606 997 l 799 997 l 785 765 l 881 765 l 881 597 l 774 597 l 763 417 l 847 417 l 847 249 l 753 249 l 738 0 l 544 0 l 560 249 l 386 249 l 371 0 l 178 0 l 193 249 l 86 249 m 407 597 l 396 417 l 569 417 l 581 597 l 407 597 z "},"$":{"ha":688,"x_min":31,"x_max":667,"o":"m 264 -151 l 264 -1 q 97 96 163 18 q 31 314 31 174 l 206 322 q 235 201 206 239 q 328 164 265 164 q 433 197 390 164 q 475 286 475 231 q 381 404 475 386 l 251 421 q 98 507 154 439 q 42 693 42 575 q 101 889 42 811 q 264 989 161 967 l 264 1092 l 404 1092 l 404 992 q 583 899 517 974 q 649 717 649 825 l 475 708 q 431 803 464 778 q 345 829 397 829 q 260 792 293 829 q 228 706 228 754 q 256 630 228 658 q 324 594 283 601 l 414 578 q 594 488 522 560 q 667 297 667 417 q 588 100 667 178 q 404 0 510 22 l 404 -151 l 264 -151 z "},"%":{"ha":1178,"x_min":101,"x_max":1108,"o":"m 374 654 l 374 808 q 356 860 374 846 q 303 874 339 874 q 249 860 267 874 q 232 808 232 846 l 232 654 q 249 603 232 617 q 303 589 267 589 q 356 603 339 589 q 374 654 374 617 m 1108 347 l 1108 154 q 907 -8 1108 -8 q 706 154 706 -8 l 706 347 q 907 510 706 510 q 1108 347 1108 510 m 978 174 l 978 328 q 960 379 978 365 q 907 393 943 393 q 853 379 871 393 q 836 328 836 365 l 836 174 q 853 122 836 136 q 907 108 871 108 q 960 122 943 108 q 978 174 978 136 m 504 828 l 504 635 q 303 472 504 472 q 101 635 101 472 l 101 828 q 303 989 101 989 l 894 989 l 426 0 l 285 0 l 701 881 l 497 881 q 504 828 504 856 z "},"&":{"ha":1001,"x_min":139,"x_max":976,"o":"m 603 415 l 603 563 l 976 563 l 976 415 l 849 415 q 849 347 849 397 q 836 226 849 296 q 797 109 824 156 q 725 36 771 63 q 628 1 679 10 q 501 -8 576 -8 q 230 66 321 -8 q 139 272 139 140 q 163 407 139 347 q 256 519 188 467 q 176 746 176 611 q 258 945 176 881 q 497 1010 339 1010 q 735 933 654 1010 q 815 696 815 857 l 633 696 q 605 813 633 783 q 501 843 576 843 q 394 809 426 843 q 363 747 363 775 q 397 603 363 665 q 469 633 454 628 l 503 479 q 378 402 424 446 q 333 290 333 358 q 372 190 333 221 q 505 158 410 158 q 633 213 600 158 q 669 415 667 268 l 603 415 z "},"'":{"ha":360,"x_min":94,"x_max":265,"o":"m 251 696 l 108 696 l 94 989 l 265 989 l 251 696 z "},"(":{"ha":467,"x_min":53,"x_max":390,"o":"m 390 -10 l 269 -131 q 122 124 190 -50 q 53 485 53 297 q 122 857 53 674 q 269 1119 192 1040 l 390 999 q 297 790 343 939 q 250 489 250 640 q 295 193 250 338 q 390 -10 340 49 z "},")":{"ha":467,"x_min":53,"x_max":390,"o":"m 174 -131 l 53 -10 q 148 193 103 49 q 193 489 193 338 q 147 790 193 640 q 53 999 100 939 l 174 1119 q 321 857 251 1040 q 390 485 390 674 q 322 124 390 297 q 174 -131 253 -50 z "},"*":{"ha":686,"x_min":74,"x_max":611,"o":"m 611 640 l 542 535 l 385 628 l 367 622 l 292 463 l 172 513 l 269 683 l 74 711 l 103 835 l 267 800 l 211 964 l 336 1000 l 378 831 l 496 947 l 588 858 l 435 731 l 611 640 z "},"+":{"ha":754,"x_min":69,"x_max":685,"o":"m 685 300 l 463 300 l 463 78 l 293 78 l 293 300 l 69 300 l 69 469 l 293 469 l 293 692 l 463 692 l 463 469 l 685 469 l 685 300 z "},",":{"ha":388,"x_min":94,"x_max":293,"o":"m 293 197 l 293 51 q 230 -124 293 -47 q 94 -229 167 -201 l 94 197 l 293 197 z "},"-":{"ha":592,"x_min":82,"x_max":510,"o":"m 510 313 l 82 313 l 82 481 l 510 481 l 510 313 z "},".":{"ha":410,"x_min":88,"x_max":314,"o":"m 292 187 q 303 176 292 187 q 314 96 314 165 q 292 4 314 26 q 201 -18 271 -18 q 110 4 132 -18 q 88 96 88 26 q 110 187 88 165 q 201 208 132 208 q 292 187 271 208 z "},"/":{"ha":560,"x_min":0,"x_max":565,"o":"m 565 1092 l 169 -103 l 0 -103 l 396 1092 l 565 1092 z "},":":{"ha":443,"x_min":124,"x_max":353,"o":"m 331 187 q 342 176 331 187 q 353 96 353 165 q 331 4 353 26 q 240 -18 310 -18 q 149 4 171 -18 q 126 96 126 26 q 149 187 126 165 q 240 208 171 208 q 331 187 310 208 m 328 573 q 339 562 328 573 q 350 482 350 551 q 328 390 350 413 q 238 368 307 368 q 146 390 168 368 q 124 482 124 413 q 146 573 124 551 q 238 594 168 594 q 328 573 307 594 z "},";":{"ha":429,"x_min":124,"x_max":350,"o":"m 340 197 l 340 51 q 277 -124 340 -47 q 142 -229 214 -201 l 142 197 l 340 197 m 328 573 q 339 562 328 573 q 350 482 350 551 q 328 390 350 413 q 238 368 307 368 q 146 390 168 368 q 124 482 124 413 q 146 573 124 551 q 238 594 168 594 q 328 573 307 594 z "},"<":{"ha":704,"x_min":78,"x_max":613,"o":"m 613 236 l 613 56 l 78 318 l 78 465 l 613 726 l 613 546 l 263 390 l 613 236 z "},"=":{"ha":754,"x_min":69,"x_max":685,"o":"m 685 463 l 69 463 l 69 632 l 685 632 l 685 463 m 685 161 l 69 161 l 69 331 l 685 331 l 685 161 z "},">":{"ha":686,"x_min":78,"x_max":613,"o":"m 78 56 l 78 236 l 428 390 l 78 546 l 78 726 l 613 465 l 613 318 l 78 56 z "},"?":{"ha":726,"x_min":76,"x_max":676,"o":"m 676 719 q 655 628 676 665 q 626 578 633 590 q 595 537 618 567 q 571 506 572 507 l 478 410 q 453 339 453 378 l 453 296 l 272 296 l 272 351 q 325 496 272 444 l 411 575 q 489 675 475 632 q 496 721 496 697 q 469 813 496 790 q 378 835 442 835 q 285 811 315 835 q 254 719 254 788 q 297 585 254 650 l 157 529 q 94 624 113 583 q 76 719 76 665 q 147 928 76 860 q 383 997 218 997 q 676 719 676 997 m 459 187 q 470 176 459 187 q 481 96 481 165 q 459 4 481 26 q 368 -18 438 -18 q 276 4 299 -18 q 254 96 254 26 q 276 187 254 165 q 368 208 299 208 q 459 187 438 208 z "},"@":{"ha":1203,"x_min":39,"x_max":1164,"o":"m 1164 483 q 946 8 1164 8 q 835 26 882 8 q 767 72 788 44 q 725 178 725 125 q 728 231 725 200 q 653 96 697 135 q 543 57 610 57 q 358 140 425 57 q 290 385 290 224 q 360 656 290 586 q 604 726 431 726 l 743 726 l 843 735 l 843 286 q 863 135 843 182 q 946 88 882 88 q 1082 482 1082 88 q 968 815 1082 715 q 606 914 854 914 q 240 794 357 914 q 122 413 122 675 q 252 -1 122 150 q 644 -153 382 -153 l 635 -235 q 397 -200 501 -235 q 226 -108 293 -165 q 117 33 160 -50 q 39 397 39 182 q 189 869 39 736 q 363 967 264 938 q 596 997 461 997 q 1025 881 886 997 q 1164 483 1164 765 m 703 589 l 604 589 q 473 542 507 589 q 439 388 439 496 q 473 242 439 279 q 578 204 507 204 q 663 269 622 204 q 703 422 703 335 l 703 589 z "},"A":{"ha":886,"x_min":21,"x_max":865,"o":"m 865 0 l 664 0 l 608 171 l 276 171 l 222 0 l 21 0 l 338 906 q 384 971 358 953 q 447 989 410 989 q 508 972 485 989 q 549 906 531 956 l 865 0 m 564 333 l 447 725 l 325 333 l 564 333 z "},"B":{"ha":914,"x_min":115,"x_max":832,"o":"m 832 285 q 758 74 832 147 q 550 0 683 0 l 417 0 q 184 57 253 0 q 115 254 115 114 l 115 989 l 533 989 q 747 918 675 989 q 818 718 818 847 q 780 590 818 643 q 696 515 742 538 q 832 285 832 451 m 518 603 q 625 710 625 603 q 518 817 625 817 l 308 817 l 308 603 l 518 603 m 639 294 q 615 395 639 361 q 531 429 592 429 l 308 429 l 308 274 q 337 194 308 217 q 431 172 365 172 l 531 172 q 639 294 639 172 z "},"C":{"ha":843,"x_min":54,"x_max":794,"o":"m 615 383 l 794 383 q 700 93 794 194 q 433 -8 606 -8 q 54 438 54 -8 l 54 521 q 249 961 54 872 q 433 997 325 997 q 691 910 592 997 q 790 660 790 824 l 610 660 q 556 783 594 742 q 433 825 517 825 q 289 764 336 825 q 250 617 256 721 q 247 526 247 583 l 247 440 q 292 222 247 281 q 434 164 338 164 q 567 217 531 164 q 615 383 604 271 z "},"D":{"ha":915,"x_min":115,"x_max":863,"o":"m 861 499 l 863 392 q 838 221 857 290 q 761 94 818 151 q 486 0 667 0 q 194 56 274 0 q 115 260 115 113 l 115 989 l 500 989 q 761 894 667 989 q 851 708 838 818 q 861 499 861 631 m 626 233 q 660 322 653 265 q 668 497 668 378 q 660 670 668 617 q 626 756 653 724 q 482 817 576 817 l 308 817 l 308 269 q 346 193 308 214 q 480 172 383 172 q 626 233 576 172 z "},"E":{"ha":840,"x_min":115,"x_max":767,"o":"m 767 0 l 417 0 q 183 58 250 0 q 115 261 115 115 l 115 989 l 767 989 l 767 817 l 308 817 l 308 585 l 629 585 l 615 413 l 308 413 l 308 275 q 335 194 308 217 q 431 172 361 172 l 767 172 l 767 0 z "},"F":{"ha":819,"x_min":115,"x_max":767,"o":"m 767 817 l 418 817 q 333 793 357 817 q 308 711 308 769 l 308 574 l 671 574 l 657 401 l 308 401 l 308 0 l 115 0 l 115 788 q 163 943 115 897 q 328 989 211 989 l 767 989 l 767 817 z "},"G":{"ha":885,"x_min":54,"x_max":800,"o":"m 54 465 l 54 588 q 156 889 54 781 q 436 997 257 997 q 724 889 615 997 q 800 660 800 813 l 619 660 q 443 825 619 825 q 353 805 390 825 q 299 758 317 785 q 271 681 281 732 q 260 594 261 629 q 258 501 258 560 q 259 423 258 443 q 263 358 260 403 q 274 293 267 313 q 297 243 282 274 q 333 200 311 213 q 463 164 390 164 q 633 267 583 164 l 633 333 l 514 333 l 514 494 l 799 494 l 799 196 q 663 43 756 94 q 451 -8 569 -8 q 148 109 242 -8 q 54 465 54 226 z "},"H":{"ha":951,"x_min":101,"x_max":850,"o":"m 850 0 l 657 0 l 657 400 l 294 400 l 294 0 l 101 0 l 101 989 l 294 989 l 294 571 l 657 571 l 657 989 l 850 989 l 850 0 z "},"I":{"ha":424,"x_min":115,"x_max":308,"o":"m 308 0 l 115 0 l 115 989 l 308 989 l 308 0 z "},"J":{"ha":710,"x_min":10,"x_max":621,"o":"m 621 989 l 621 353 q 539 73 621 154 q 301 -8 457 -8 q 134 18 201 -8 q 10 101 67 44 l 118 219 q 190 180 142 196 q 299 164 238 164 q 394 194 361 164 q 428 306 428 224 l 428 989 l 621 989 z "},"K":{"ha":924,"x_min":115,"x_max":901,"o":"m 561 524 l 901 0 l 676 0 l 443 374 l 308 193 l 308 0 l 115 0 l 115 989 l 308 989 l 308 436 l 682 989 l 876 989 l 561 524 z "},"L":{"ha":764,"x_min":115,"x_max":725,"o":"m 725 0 l 431 0 q 190 65 264 0 q 115 275 115 129 l 115 989 l 308 989 l 308 275 q 335 194 308 217 q 431 172 361 172 l 725 172 l 725 0 z "},"M":{"ha":1126,"x_min":101,"x_max":1039,"o":"m 846 590 l 668 215 q 572 140 629 140 q 475 219 514 140 l 294 590 l 294 0 l 101 0 l 101 989 l 292 989 l 571 418 l 849 989 l 1039 989 l 1039 0 l 846 0 l 846 590 z "},"N":{"ha":971,"x_min":101,"x_max":886,"o":"m 886 989 l 886 100 q 858 22 886 54 q 793 -11 831 -11 q 636 100 697 -11 l 294 635 l 294 0 l 101 0 l 101 989 l 288 989 l 693 342 l 693 989 l 886 989 z "},"O":{"ha":894,"x_min":54,"x_max":840,"o":"m 840 540 l 840 465 q 747 104 840 217 q 446 -8 653 -8 q 147 104 239 -8 q 54 469 54 217 l 54 542 q 148 885 54 772 q 445 997 242 997 q 744 883 649 997 q 840 540 840 769 m 647 469 l 647 521 q 614 733 647 654 q 447 825 575 825 q 279 733 318 825 q 247 521 247 658 l 247 469 q 297 228 247 290 q 355 183 317 201 q 447 164 393 164 q 538 182 500 164 q 596 226 575 200 q 628 296 617 253 q 647 469 647 364 z "},"P":{"ha":872,"x_min":115,"x_max":825,"o":"m 740 903 q 782 861 740 903 q 825 653 825 818 q 740 402 825 488 q 499 317 654 317 l 308 317 l 308 0 l 115 0 l 115 989 l 499 989 q 740 903 654 989 m 632 653 q 489 817 632 817 l 308 817 l 308 490 l 489 490 q 595 528 558 490 q 632 653 632 565 z "},"Q":{"ha":893,"x_min":54,"x_max":864,"o":"m 840 522 l 840 465 q 722 139 840 229 q 864 163 799 143 l 864 -8 l 447 -8 q 282 20 361 -8 q 145 106 203 49 q 71 244 88 164 q 54 468 54 325 l 54 521 q 71 744 54 664 q 145 883 88 825 q 282 969 203 940 q 447 997 361 997 q 612 969 533 997 q 749 881 690 940 q 824 746 808 822 q 840 522 840 669 m 647 474 l 647 540 q 600 768 647 714 q 447 825 553 825 q 292 767 342 825 q 250 617 256 724 q 247 521 247 582 l 247 469 q 269 268 249 322 q 447 164 308 164 q 608 233 568 164 q 640 331 635 283 q 647 474 647 390 z "},"R":{"ha":908,"x_min":115,"x_max":864,"o":"m 864 0 l 640 0 l 447 367 l 308 367 l 308 0 l 115 0 l 115 776 q 167 938 115 888 q 339 989 218 989 l 503 989 q 737 899 650 989 q 824 672 824 810 q 772 499 824 572 q 643 399 719 426 l 864 0 m 490 528 q 591 570 551 528 q 631 676 631 613 q 592 778 631 739 q 490 817 554 817 l 394 817 q 308 729 308 817 l 308 528 l 490 528 z "},"S":{"ha":821,"x_min":39,"x_max":782,"o":"m 782 292 q 679 72 782 151 q 417 -8 576 -8 q 172 61 290 -8 q 76 163 114 97 q 39 314 39 229 l 214 322 q 278 206 214 247 q 419 164 342 164 q 593 286 593 164 q 475 404 593 386 l 314 421 q 122 507 193 439 q 51 703 51 575 q 153 914 51 831 q 409 997 254 997 q 658 919 564 997 q 753 717 753 840 l 581 708 q 418 829 557 829 q 285 793 333 829 q 238 708 238 757 q 272 630 238 658 q 358 594 307 601 l 517 578 q 782 292 782 542 z "},"T":{"ha":793,"x_min":36,"x_max":758,"o":"m 758 817 l 493 817 l 493 0 l 300 0 l 300 817 l 36 817 l 36 989 l 758 989 l 758 817 z "},"U":{"ha":928,"x_min":86,"x_max":842,"o":"m 842 989 l 842 339 q 733 85 842 178 q 464 -8 624 -8 q 195 85 304 -8 q 86 339 86 178 l 86 989 l 279 989 l 279 346 q 330 209 279 254 q 464 164 381 164 q 599 209 547 164 q 650 346 650 254 l 650 989 l 842 989 z "},"V":{"ha":807,"x_min":4,"x_max":803,"o":"m 803 989 l 492 56 q 403 -8 467 -8 q 311 56 336 -8 l 4 989 l 204 989 l 403 344 l 601 989 l 803 989 z "},"W":{"ha":1232,"x_min":8,"x_max":1224,"o":"m 1224 989 l 958 0 l 797 0 l 615 600 l 433 0 l 272 0 l 8 989 l 210 989 l 363 365 l 514 881 q 619 996 539 996 q 681 966 660 996 q 718 881 701 936 l 868 365 l 1022 989 l 1224 989 z "},"X":{"ha":889,"x_min":7,"x_max":896,"o":"m 896 0 l 657 0 l 450 344 l 246 0 l 7 0 l 339 507 l 28 989 l 265 989 l 450 669 l 638 989 l 874 989 l 563 507 l 896 0 z "},"Y":{"ha":794,"x_min":4,"x_max":790,"o":"m 790 989 l 493 406 l 493 0 l 301 0 l 301 406 l 4 989 l 214 989 l 399 590 l 581 989 l 790 989 z "},"Z":{"ha":761,"x_min":46,"x_max":706,"o":"m 706 0 l 203 0 q 86 36 126 0 q 46 131 46 72 q 89 253 46 189 l 478 817 l 74 817 l 74 989 l 706 989 l 706 836 l 254 172 l 706 172 l 706 0 z "},"[":{"ha":525,"x_min":111,"x_max":468,"o":"m 468 -103 l 111 -103 l 111 1092 l 468 1092 l 468 929 l 292 929 l 292 60 l 468 60 l 468 -103 z "},"\\":{"ha":560,"x_min":0,"x_max":560,"o":"m 560 -103 l 390 -103 l 0 1074 l 169 1074 l 560 -103 z "},"]":{"ha":525,"x_min":58,"x_max":415,"o":"m 415 -103 l 58 -103 l 58 58 l 235 58 l 235 931 l 58 931 l 58 1092 l 415 1092 l 415 -103 z "},"^":{"ha":836,"x_min":88,"x_max":749,"o":"m 749 540 l 560 540 l 435 803 l 400 801 l 276 540 l 88 540 l 335 999 l 501 999 l 749 540 z "},"_":{"ha":767,"x_min":0,"x_max":767,"o":"m 767 -247 l 0 -247 l 0 -126 l 767 -126 l 767 -247 z "},"`":{"ha":694,"x_min":142,"x_max":390,"o":"m 244 939 l 142 1086 l 332 1086 l 385 939 q 390 908 390 922 q 351 872 390 872 q 244 939 292 872 z "},"a":{"ha":742,"x_min":13,"x_max":647,"o":"m 647 0 l 526 0 l 471 96 l 278 -8 q 61 108 117 -8 q 23 231 33 165 q 13 369 13 297 q 14 474 13 440 q 21 553 15 508 q 37 629 26 599 q 67 692 47 660 q 114 744 86 725 q 276 788 176 788 l 467 788 l 647 799 l 647 0 m 467 253 l 467 625 l 329 625 q 223 567 253 625 q 193 392 193 508 q 222 229 193 276 q 329 182 250 182 l 467 253 z "},"b":{"ha":778,"x_min":72,"x_max":718,"o":"m 440 -1 l 283 0 q 126 61 179 0 q 72 207 72 122 l 72 1044 l 253 1044 l 253 694 l 468 794 q 650 728 592 794 q 714 535 701 668 q 718 397 718 479 q 440 -1 718 -1 m 299 154 l 388 154 q 538 397 538 154 q 515 569 538 521 q 415 618 492 618 l 253 531 l 253 218 q 299 154 253 163 z "},"c":{"ha":721,"x_min":43,"x_max":671,"o":"m 507 290 l 671 292 q 668 251 669 281 q 666 212 667 222 q 663 179 665 201 q 656 147 660 157 q 647 119 653 136 q 511 6 622 47 q 363 -19 440 -19 q 224 6 286 -19 q 125 69 161 31 q 43 392 43 156 q 125 715 43 629 q 224 779 161 754 q 363 804 286 804 q 590 729 513 804 q 668 521 668 654 l 504 521 q 474 612 504 582 q 360 642 443 642 q 251 590 278 642 q 224 436 224 539 l 224 364 q 288 161 224 199 q 364 143 317 143 q 441 152 411 143 q 484 183 471 161 q 501 227 497 206 q 507 290 506 249 z "},"d":{"ha":779,"x_min":43,"x_max":678,"o":"m 678 0 l 557 0 l 501 96 l 308 -8 q 92 108 147 -8 q 53 231 64 165 q 43 369 43 297 q 44 474 43 440 q 51 553 46 508 q 67 629 57 599 q 97 692 78 660 q 144 744 117 725 q 307 788 207 788 l 497 788 l 497 1044 l 678 1044 l 678 0 m 497 253 l 497 625 l 360 625 q 253 567 283 625 q 224 392 224 508 q 252 229 224 276 q 360 182 281 182 l 497 253 z "},"e":{"ha":761,"x_min":54,"x_max":699,"o":"m 696 354 l 233 354 q 267 196 233 246 q 404 146 301 146 q 503 188 471 146 q 535 269 535 231 l 697 269 q 617 51 697 121 q 406 -18 538 -18 q 203 19 275 -18 q 54 425 54 96 q 139 712 54 621 q 397 803 224 803 q 699 468 699 803 q 696 354 699 432 m 238 478 l 535 478 q 500 611 535 569 q 394 653 465 653 q 280 610 322 653 q 238 478 238 568 z "},"f":{"ha":475,"x_min":35,"x_max":438,"o":"m 438 625 l 290 625 l 290 0 l 110 0 l 110 625 l 35 625 l 35 763 l 110 763 l 110 839 q 164 985 110 924 q 321 1046 218 1046 l 438 1046 l 438 893 l 353 893 q 290 828 290 893 l 290 763 l 438 763 l 438 625 z "},"g":{"ha":771,"x_min":36,"x_max":671,"o":"m 490 788 l 671 799 l 671 36 q 597 -166 671 -96 q 376 -236 522 -236 q 179 -192 264 -236 q 108 -125 135 -169 q 82 -19 82 -81 l 250 -11 q 278 -67 250 -50 q 373 -83 306 -83 q 465 -50 440 -83 q 489 46 489 -17 l 496 165 l 301 61 q 86 169 142 61 q 36 404 36 265 q 61 638 36 569 q 136 746 88 713 q 300 788 199 788 l 490 788 m 490 322 l 490 625 l 353 625 q 246 572 275 625 q 217 425 217 519 q 247 291 217 331 q 353 251 276 251 l 490 322 z "},"h":{"ha":790,"x_min":81,"x_max":714,"o":"m 714 0 l 533 0 l 533 497 q 433 625 533 625 l 261 557 l 261 0 l 81 0 l 81 1044 l 261 1044 l 261 699 l 490 801 q 663 732 613 801 q 714 538 714 663 l 714 0 z "},"i":{"ha":382,"x_min":88,"x_max":297,"o":"m 193 1096 q 226 1096 193 1096 q 278 1076 258 1096 q 297 991 297 1056 q 277 906 297 926 q 192 886 257 886 q 108 907 128 886 q 88 992 88 928 q 108 1076 88 1056 q 193 1096 128 1096 m 282 0 l 101 0 l 101 764 l 282 764 l 282 0 z "},"j":{"ha":382,"x_min":-32,"x_max":297,"o":"m 282 764 l 282 -29 q 228 -175 282 -114 q 71 -236 175 -236 l -32 -236 l -32 -83 l 38 -83 q 101 -18 101 -83 l 101 764 l 282 764 m 193 1096 q 226 1096 193 1096 q 278 1076 258 1096 q 297 991 297 1056 q 277 906 297 926 q 192 886 257 886 q 108 907 128 886 q 88 992 88 928 q 108 1076 88 1056 q 193 1096 128 1096 z "},"k":{"ha":776,"x_min":99,"x_max":783,"o":"m 783 0 l 567 0 l 358 281 l 279 168 l 279 0 l 99 0 l 99 1044 l 279 1044 l 279 385 l 532 761 l 736 761 l 476 406 l 783 0 z "},"l":{"ha":368,"x_min":94,"x_max":275,"o":"m 275 0 l 94 -1 l 94 1044 l 275 1044 l 275 0 z "},"m":{"ha":1217,"x_min":101,"x_max":1124,"o":"m 1124 0 l 943 0 l 943 493 q 926 596 943 567 q 865 625 908 625 l 703 557 l 703 0 l 522 0 l 522 493 q 431 625 522 625 l 282 557 l 282 0 l 101 0 l 101 793 l 236 793 l 278 699 l 486 801 q 650 696 594 801 l 908 801 q 1070 728 1017 801 q 1124 532 1124 656 l 1124 0 z "},"n":{"ha":796,"x_min":88,"x_max":717,"o":"m 717 0 l 536 0 l 536 507 q 508 600 536 575 q 431 625 481 625 l 268 557 l 268 0 l 88 0 l 88 793 l 222 793 l 264 699 l 486 801 q 648 733 579 801 q 717 532 717 664 l 717 0 z "},"o":{"ha":754,"x_min":43,"x_max":711,"o":"m 531 358 l 531 431 q 501 588 531 533 q 376 642 471 642 q 224 436 224 642 l 224 364 q 376 143 224 143 q 506 217 475 143 q 531 358 531 275 m 711 400 q 614 56 711 143 q 376 -19 532 -19 q 108 97 178 -19 q 43 400 43 204 q 108 688 43 583 q 372 804 181 804 q 637 702 563 804 q 711 400 711 600 z "},"p":{"ha":778,"x_min":101,"x_max":735,"o":"m 735 418 q 575 22 735 108 q 415 -12 510 -12 l 282 74 l 282 -236 l 101 -236 l 101 788 l 457 788 q 676 697 618 788 q 735 418 735 606 m 554 390 q 404 625 554 625 l 282 625 l 282 257 l 404 178 q 519 228 485 178 q 554 390 554 279 z "},"q":{"ha":779,"x_min":42,"x_max":676,"o":"m 676 -235 l 499 -235 l 500 96 l 307 -8 q 90 108 146 -8 q 52 231 63 165 q 42 369 42 297 q 43 474 42 440 q 50 553 44 508 q 66 629 56 599 q 96 692 76 660 q 142 744 115 725 q 306 788 206 788 l 496 788 l 676 799 l 676 -235 m 496 253 l 496 625 l 358 625 q 252 567 282 625 q 222 392 222 508 q 251 229 222 276 q 358 182 279 182 l 496 253 z "},"r":{"ha":542,"x_min":74,"x_max":522,"o":"m 522 790 l 472 613 q 425 621 451 621 q 254 561 356 621 l 254 0 l 74 0 l 74 793 l 208 793 l 250 724 l 442 803 q 479 804 456 804 q 522 790 503 804 z "},"s":{"ha":696,"x_min":46,"x_max":646,"o":"m 646 219 l 646 199 q 558 42 638 94 q 358 -11 478 -11 q 111 53 182 -11 q 46 225 46 111 l 46 242 l 210 242 q 243 154 210 178 q 358 131 276 131 q 469 211 469 131 q 431 300 469 278 q 385 317 413 311 l 244 340 q 61 569 61 369 q 142 742 61 681 q 349 804 224 804 q 633 558 633 804 l 633 540 l 476 540 q 442 629 474 606 q 352 653 410 653 q 265 630 294 653 q 236 579 236 607 q 300 489 236 500 l 468 458 q 646 219 646 425 z "},"t":{"ha":489,"x_min":42,"x_max":440,"o":"m 440 0 l 328 0 q 172 61 225 0 q 118 207 118 122 l 118 624 l 42 624 l 42 761 l 118 761 l 118 917 l 299 917 l 299 761 l 426 761 l 426 624 l 299 624 l 299 218 q 361 153 299 153 l 440 153 l 440 0 z "},"u":{"ha":796,"x_min":65,"x_max":694,"o":"m 694 0 l 560 0 l 518 94 l 296 -8 q 134 60 203 -8 q 65 261 65 129 l 65 793 l 246 793 l 246 300 q 351 168 246 168 l 514 256 l 514 793 l 694 793 l 694 0 z "},"v":{"ha":685,"x_min":6,"x_max":679,"o":"m 679 793 l 414 0 l 272 0 l 6 793 l 196 793 l 343 276 l 489 793 l 679 793 z "},"w":{"ha":1054,"x_min":6,"x_max":1049,"o":"m 1049 793 l 828 0 l 679 0 l 528 482 l 376 0 l 228 0 l 6 793 l 197 793 l 314 276 l 435 701 q 529 793 456 793 q 585 771 564 793 q 619 701 606 749 l 742 276 l 858 793 l 1049 793 z "},"x":{"ha":732,"x_min":17,"x_max":708,"o":"m 708 0 l 506 0 l 365 243 l 233 0 l 17 0 l 274 404 l 26 793 l 229 793 l 368 564 l 503 793 l 706 793 l 458 404 l 708 0 z "},"y":{"ha":686,"x_min":6,"x_max":681,"o":"m 681 793 l 379 -89 q 325 -182 358 -149 q 169 -237 269 -237 l 85 -237 l 85 -75 l 140 -75 q 198 -62 179 -75 q 231 -10 217 -49 l 244 29 l 6 793 l 196 793 l 338 242 l 490 793 l 681 793 z "},"z":{"ha":664,"x_min":24,"x_max":617,"o":"m 603 0 l 171 0 q 62 30 100 0 q 24 114 24 60 q 69 228 24 168 l 400 638 l 69 638 l 69 793 l 617 793 l 617 656 l 222 156 l 603 156 l 603 0 z "},"{":{"ha":635,"x_min":126,"x_max":575,"o":"m 575 -103 l 433 -103 q 274 -48 329 -103 q 219 103 219 7 l 261 304 q 243 378 261 346 q 191 413 225 411 q 142 438 157 414 q 126 494 126 461 q 142 551 126 526 q 190 575 157 575 q 242 608 222 575 q 261 685 261 642 l 219 886 q 274 1037 219 982 q 433 1092 329 1092 l 575 1092 l 575 929 q 433 908 465 929 q 400 821 400 886 l 442 661 q 411 551 442 594 q 346 494 381 508 q 411 438 381 481 q 442 328 442 394 l 400 168 q 411 106 400 126 q 575 60 433 60 l 575 -103 z "},"|":{"ha":486,"x_min":153,"x_max":333,"o":"m 333 -103 l 153 -103 l 153 1092 l 333 1092 l 333 -103 z "},"}":{"ha":635,"x_min":101,"x_max":550,"o":"m 243 -103 l 101 -103 l 101 60 q 267 106 243 60 q 276 168 276 126 l 235 328 q 265 438 235 394 q 331 494 296 481 q 265 551 296 508 q 235 661 235 594 l 276 821 q 244 908 276 886 q 101 929 211 929 l 101 1092 l 243 1092 q 402 1037 347 1092 q 457 886 457 982 l 415 685 q 435 608 415 642 q 487 575 454 575 q 535 551 519 575 q 550 494 550 526 q 535 438 550 461 q 485 413 519 414 q 433 378 451 411 q 415 304 415 346 l 457 103 q 402 -48 457 7 q 243 -103 347 -103 z "},"~":{"ha":842,"x_min":51,"x_max":790,"o":"m 675 504 l 790 390 q 674 298 725 325 q 556 271 624 271 q 411 311 488 271 q 279 351 335 351 q 165 293 224 351 l 51 407 q 167 500 118 474 q 285 526 217 526 q 429 486 353 526 q 561 446 506 446 q 675 504 617 446 z "}," ":{"ha":322,"x_min":0,"x_max":0,"o":""},"¡":{"ha":482,"x_min":139,"x_max":367,"o":"m 325 364 l 367 -236 l 143 -236 l 183 364 q 203 424 183 401 q 249 446 224 446 q 297 424 275 446 q 325 364 319 403 m 344 748 q 355 737 344 748 q 365 657 365 726 q 344 565 365 588 q 253 543 322 543 q 161 565 183 543 q 139 657 139 588 q 161 748 139 726 q 253 769 183 769 q 344 748 322 769 z "},"¢":{"ha":693,"x_min":43,"x_max":671,"o":"m 303 -153 l 303 -15 q 115 86 175 7 q 49 279 61 157 q 43 407 43 332 q 53 542 43 482 q 89 657 63 601 q 303 800 143 769 l 303 926 l 444 926 l 444 797 q 611 706 554 778 q 668 521 668 635 l 504 521 q 474 612 504 582 q 363 642 443 642 q 256 606 292 642 q 225 504 229 579 q 224 436 224 481 l 224 364 q 254 186 224 225 q 363 143 289 143 q 483 183 460 143 q 501 227 497 206 q 507 290 506 249 l 671 292 q 645 129 661 178 q 606 60 629 81 q 444 -11 553 11 l 444 -153 l 303 -153 z "},"£":{"ha":804,"x_min":56,"x_max":742,"o":"m 728 0 l 332 0 q 178 44 217 0 q 140 208 140 88 l 140 413 l 56 413 l 56 551 l 140 551 l 140 656 q 216 922 140 854 q 489 989 292 989 q 628 965 569 989 q 742 888 688 942 l 615 761 q 480 817 560 817 q 366 776 400 817 q 332 647 332 736 l 332 551 l 489 551 l 489 413 l 332 413 l 332 240 q 349 185 332 197 q 418 172 365 172 l 728 172 l 728 0 z "},"¤":{"ha":929,"x_min":81,"x_max":847,"o":"m 847 133 l 729 14 l 626 115 q 465 71 551 71 q 303 115 378 71 l 200 14 l 81 133 l 183 235 q 138 397 138 313 q 183 560 138 482 l 81 661 l 200 781 l 303 679 q 465 724 378 724 q 626 679 551 724 l 729 781 l 847 661 l 746 560 q 790 397 790 485 q 746 235 790 310 l 847 133 m 580 282 q 604 306 580 282 q 628 397 628 329 q 580 513 628 465 q 464 560 532 560 q 349 513 396 560 q 301 397 301 465 q 349 282 301 329 q 464 235 396 235 q 580 282 532 235 z "},"¥":{"ha":718,"x_min":28,"x_max":693,"o":"m 549 133 l 438 133 l 438 -1 l 282 -1 l 282 133 l 175 133 l 175 265 l 282 265 l 282 363 l 178 363 l 178 494 l 244 494 l 28 989 l 211 989 l 361 603 l 508 989 l 693 989 l 475 494 l 551 494 l 551 363 l 438 363 l 438 265 l 549 265 l 549 133 z "},"¦":{"ha":490,"x_min":153,"x_max":333,"o":"m 333 606 l 153 606 l 153 1092 l 333 1092 l 333 606 m 333 -103 l 153 -103 l 153 383 l 333 383 l 333 -103 z "},"§":{"ha":738,"x_min":-7,"x_max":725,"o":"m 725 292 q 626 17 725 122 q 349 -87 528 -87 q 28 72 103 -87 q -7 239 -3 139 l 160 239 q 215 126 160 169 q 347 83 271 83 q 469 122 422 83 q 318 188 379 144 q 110 415 178 288 q 43 678 43 543 q 140 944 43 854 q 406 1033 238 1033 q 543 1010 486 1033 q 632 959 600 986 q 690 884 664 932 q 725 774 715 836 l 560 761 q 513 840 560 815 q 394 865 467 865 q 278 826 321 865 q 543 682 453 758 q 679 513 633 606 q 725 292 725 419 m 419 342 q 538 283 471 300 l 538 299 q 433 546 538 456 q 231 656 354 614 q 419 342 246 476 z "},"¨":{"ha":694,"x_min":97,"x_max":597,"o":"m 573 1038 q 585 1028 573 1038 q 597 964 597 1018 q 573 890 597 910 q 504 871 549 871 q 435 890 460 871 q 411 964 411 910 q 435 1038 411 1018 q 504 1057 460 1057 q 573 1038 549 1057 m 259 1038 q 271 1028 259 1038 q 283 964 283 1018 q 259 890 283 910 q 190 871 235 871 q 122 890 146 871 q 97 964 97 910 q 122 1038 97 1018 q 190 1057 146 1057 q 259 1038 235 1057 z "},"©":{"ha":1172,"x_min":83,"x_max":1089,"o":"m 682 446 l 807 446 q 751 267 807 329 q 596 204 696 204 q 372 463 372 204 l 372 508 q 422 711 372 638 q 596 785 472 785 q 747 730 689 785 q 806 572 806 675 l 681 572 q 596 663 665 663 q 519 614 533 663 q 507 511 507 575 l 507 464 q 547 338 507 361 q 603 326 565 326 q 660 356 642 326 q 682 446 678 385 m 968 876 q 1028 816 968 876 q 1089 494 1089 756 q 968 113 1089 233 q 586 -8 847 -8 q 204 113 325 -8 q 83 494 83 233 q 204 876 83 756 q 586 997 325 997 q 968 876 847 997 m 587 47 q 706 47 587 47 q 929 151 825 47 q 1033 490 1033 256 q 924 833 1033 724 q 582 942 815 942 q 251 839 349 942 q 153 494 153 736 q 251 150 153 253 q 587 47 349 47 z "},"ª":{"ha":631,"x_min":32,"x_max":504,"o":"m 269 874 q 174 814 174 874 l 40 814 q 269 1006 40 1006 q 444 950 383 1006 q 504 801 504 894 l 504 413 l 388 413 l 360 471 l 226 408 q 87 456 142 408 q 32 581 32 503 q 81 715 32 660 q 225 771 129 771 l 351 771 q 333 850 351 826 q 269 874 314 874 m 351 599 l 351 664 l 244 664 q 194 647 211 664 q 176 604 176 629 q 192 560 176 579 q 233 539 207 540 l 351 599 z "},"«":{"ha":872,"x_min":65,"x_max":783,"o":"m 393 38 l 124 278 q 65 385 65 343 q 126 489 65 428 l 393 726 l 393 511 l 235 382 l 393 253 l 393 38 m 783 38 l 514 278 q 456 385 456 343 q 517 489 456 428 l 783 726 l 783 511 l 625 382 l 783 253 l 783 38 z "},"¬":{"ha":754,"x_min":78,"x_max":690,"o":"m 690 125 l 522 125 l 522 340 l 78 340 l 78 500 l 690 500 l 690 125 z "},"®":{"ha":1172,"x_min":83,"x_max":1089,"o":"m 968 876 q 1028 816 968 876 q 1089 494 1089 756 q 968 113 1089 233 q 586 -8 847 -8 q 204 113 325 -8 q 83 494 83 233 q 204 876 83 756 q 586 997 325 997 q 968 876 847 997 m 587 47 q 706 47 587 47 q 929 151 825 47 q 1033 490 1033 256 q 924 833 1033 724 q 582 942 815 942 q 251 839 349 942 q 153 494 153 736 q 251 150 153 253 q 587 47 349 47 m 828 222 l 679 222 l 576 417 l 525 417 l 525 222 l 394 222 l 394 647 q 425 744 394 714 q 528 774 456 774 l 614 774 q 748 722 699 774 q 797 604 797 671 q 706 439 797 481 q 828 222 779 310 m 607 528 q 651 547 635 528 q 668 593 668 565 q 651 638 668 621 q 607 656 635 656 l 557 656 q 525 621 525 656 l 525 528 l 607 528 z "},"¯":{"ha":694,"x_min":128,"x_max":567,"o":"m 567 875 l 128 875 l 128 996 l 567 996 l 567 875 z "},"°":{"ha":664,"x_min":76,"x_max":588,"o":"m 526 953 q 557 924 526 953 q 588 753 588 896 q 526 553 588 610 q 332 497 465 497 q 138 553 199 497 q 76 753 76 610 q 138 953 76 896 q 332 1010 200 1010 q 526 953 464 1010 m 417 665 q 429 676 417 665 q 442 753 442 688 q 416 841 442 818 q 331 864 390 864 q 247 841 272 864 q 222 753 222 818 q 247 665 222 688 q 332 642 272 642 q 417 665 392 642 z "},"±":{"ha":754,"x_min":69,"x_max":685,"o":"m 685 474 l 463 474 l 463 250 l 293 250 l 293 474 l 69 474 l 69 642 l 293 642 l 293 865 l 463 865 l 463 642 l 685 642 l 685 474 m 685 0 l 69 0 l 69 169 l 685 169 l 685 0 z "},"²":{"ha":497,"x_min":60,"x_max":435,"o":"m 431 411 l 156 411 q 60 483 60 411 q 99 563 60 521 l 201 676 q 301 831 301 788 q 249 874 301 874 q 206 853 217 874 q 194 792 194 832 l 68 792 q 106 938 68 886 q 242 990 143 990 q 388 953 340 990 q 435 860 435 917 q 412 756 435 804 q 367 678 389 707 q 297 598 344 650 q 233 528 249 546 l 431 528 l 431 411 z "},"³":{"ha":511,"x_min":74,"x_max":443,"o":"m 214 663 l 236 774 l 292 749 q 311 832 311 785 q 297 857 311 843 q 250 871 282 871 q 206 854 218 871 q 194 789 194 838 l 74 789 q 253 990 74 990 q 436 832 436 990 q 392 696 436 749 q 443 570 443 653 q 392 443 443 488 q 252 399 342 399 q 119 449 163 399 q 75 582 75 499 l 200 582 q 250 517 200 517 q 299 533 283 517 q 315 572 315 550 q 302 610 315 593 q 276 635 289 628 q 238 653 264 642 l 214 663 z "},"´":{"ha":694,"x_min":308,"x_max":557,"o":"m 557 1086 l 454 939 q 347 872 407 872 q 308 908 308 872 q 314 939 308 922 l 367 1086 l 557 1086 z "},"µ":{"ha":771,"x_min":65,"x_max":694,"o":"m 67 -194 l 67 221 q 65 261 65 233 l 65 793 l 246 793 l 246 293 q 276 198 247 228 q 351 168 306 168 l 514 256 l 514 793 l 694 793 l 694 0 l 560 0 l 518 94 l 296 -8 q 246 -4 269 -8 l 246 -54 q 207 -148 246 -101 q 124 -194 168 -194 l 67 -194 z "},"¶":{"ha":928,"x_min":35,"x_max":771,"o":"m 493 924 l 493 -275 l 313 -275 l 313 293 q 93 364 151 293 q 35 600 35 435 q 46 746 35 690 q 90 844 57 801 q 183 906 122 888 q 342 924 244 924 l 493 924 m 590 -275 l 590 924 q 738 893 704 924 q 771 779 771 863 l 771 -119 q 740 -251 771 -226 q 590 -275 710 -275 z "},"·":{"ha":410,"x_min":88,"x_max":314,"o":"m 292 494 q 303 483 292 494 q 314 403 314 472 q 292 311 314 333 q 201 289 271 289 q 110 311 132 289 q 88 403 88 333 q 110 494 88 472 q 201 515 132 515 q 292 494 271 515 z "},"¸":{"ha":694,"x_min":236,"x_max":463,"o":"m 421 29 l 396 -33 q 463 -110 463 -51 q 423 -203 463 -169 q 301 -237 383 -237 q 236 -232 283 -237 l 265 -161 q 314 -165 290 -165 q 371 -122 371 -165 q 290 -75 371 -75 l 332 29 l 421 29 z "},"¹":{"ha":406,"x_min":88,"x_max":294,"o":"m 294 392 l 165 392 l 165 882 l 88 908 l 88 990 l 206 990 q 278 970 261 990 q 294 890 294 950 l 294 392 z "},"º":{"ha":642,"x_min":76,"x_max":565,"o":"m 319 996 q 385 996 319 996 q 508 922 450 996 q 565 702 565 849 q 509 481 565 556 q 322 406 453 406 q 134 478 192 406 q 76 698 76 551 q 133 920 76 844 q 319 996 189 996 m 319 536 q 350 536 319 536 q 400 574 381 536 q 419 698 419 611 q 402 825 419 785 q 323 865 385 865 q 242 827 261 865 q 222 702 222 789 q 240 576 222 615 q 319 536 257 536 z "},"»":{"ha":872,"x_min":92,"x_max":810,"o":"m 482 726 l 751 486 q 810 378 810 421 q 749 275 810 336 l 482 38 l 482 253 l 640 382 l 482 511 l 482 726 m 92 726 l 361 486 q 419 378 419 421 q 358 275 419 336 l 92 38 l 92 253 l 250 382 l 92 511 l 92 726 z "},"¼":{"ha":1161,"x_min":99,"x_max":1126,"o":"m 1126 124 l 1061 124 l 1061 0 l 933 0 l 933 124 l 778 124 q 682 203 682 124 q 771 488 682 246 l 911 488 l 831 251 l 933 251 l 933 606 l 1061 606 l 1061 251 l 1126 251 l 1126 124 m 868 989 l 400 0 l 258 0 l 726 989 l 868 989 m 306 392 l 176 392 l 176 882 l 99 908 l 99 990 l 217 990 q 289 970 272 990 q 306 890 306 950 l 306 392 z "},"½":{"ha":1197,"x_min":99,"x_max":1129,"o":"m 861 989 l 393 0 l 253 0 l 721 989 l 861 989 m 306 392 l 176 392 l 176 882 l 99 908 l 99 990 l 217 990 q 289 970 272 990 q 306 890 306 950 l 306 392 m 1125 1 l 850 1 q 754 74 754 1 q 793 153 754 111 l 896 267 q 996 421 996 378 q 943 464 996 464 q 900 443 911 464 q 889 382 889 422 l 763 382 q 800 528 763 476 q 936 581 838 581 q 1082 544 1035 581 q 1129 451 1129 507 q 1106 346 1129 394 q 1061 269 1083 297 q 991 188 1039 240 q 928 118 943 136 l 1125 118 l 1125 1 z "},"¾":{"ha":1201,"x_min":74,"x_max":1126,"o":"m 913 989 l 444 0 l 303 0 l 771 989 l 913 989 m 214 663 l 236 774 l 292 749 q 311 832 311 785 q 297 857 311 843 q 250 871 282 871 q 206 854 218 871 q 194 789 194 838 l 74 789 q 253 990 74 990 q 436 832 436 990 q 392 696 436 749 q 443 570 443 653 q 392 443 443 488 q 252 399 342 399 q 119 449 163 399 q 75 582 75 499 l 200 582 q 250 517 200 517 q 299 533 283 517 q 315 572 315 550 q 302 610 315 593 q 276 635 289 628 q 238 653 264 642 l 214 663 m 1126 124 l 1061 124 l 1061 0 l 933 0 l 933 124 l 778 124 q 682 203 682 124 q 771 488 682 246 l 911 488 l 831 251 l 933 251 l 933 606 l 1061 606 l 1061 251 l 1126 251 l 1126 124 z "},"¿":{"ha":726,"x_min":53,"x_max":653,"o":"m 53 4 q 74 96 53 58 q 103 145 96 133 q 134 187 111 157 q 158 218 157 217 l 251 314 q 276 385 276 346 l 276 428 l 457 428 l 457 372 q 404 228 457 279 l 318 150 q 240 49 254 92 q 233 3 233 26 q 260 -89 233 -67 q 351 -111 288 -111 q 444 -87 414 -111 q 475 5 475 -64 q 432 139 475 74 l 572 194 q 635 99 617 140 q 653 4 653 58 q 582 -205 653 -136 q 346 -274 511 -274 q 53 4 53 -274 m 270 537 q 259 548 270 537 q 249 628 249 558 q 270 719 249 697 q 361 742 292 742 q 453 719 431 742 q 475 628 475 697 q 453 537 475 558 q 361 515 431 515 q 270 537 292 515 z "},"À":{"ha":886,"x_min":21,"x_max":865,"o":"m 865 0 l 664 0 l 608 171 l 276 171 l 222 0 l 21 0 l 338 906 q 384 971 358 953 q 447 989 410 989 q 508 972 485 989 q 549 906 531 956 l 865 0 m 564 333 l 447 697 l 325 333 l 564 333 m 338 1185 l 235 1332 l 425 1332 l 478 1185 q 483 1154 483 1168 q 444 1118 483 1118 q 338 1185 385 1118 z "},"Á":{"ha":886,"x_min":21,"x_max":865,"o":"m 865 0 l 664 0 l 608 171 l 276 171 l 222 0 l 21 0 l 338 906 q 384 971 358 953 q 447 989 410 989 q 508 972 485 989 q 549 906 531 956 l 865 0 m 564 333 l 447 697 l 325 333 l 564 333 m 650 1332 l 547 1185 q 440 1118 500 1118 q 401 1154 401 1118 q 407 1185 401 1168 l 460 1332 l 650 1332 z "},"Â":{"ha":886,"x_min":21,"x_max":865,"o":"m 865 0 l 664 0 l 608 171 l 276 171 l 222 0 l 21 0 l 338 906 q 384 971 358 953 q 447 989 410 989 q 508 972 485 989 q 549 906 531 956 l 865 0 m 564 333 l 447 697 l 325 333 l 564 333 m 440 1229 l 378 1151 q 271 1085 324 1085 q 242 1097 253 1085 q 231 1125 231 1110 q 238 1151 231 1140 l 368 1319 l 513 1319 l 643 1151 q 650 1126 650 1140 q 638 1098 650 1111 q 610 1085 626 1085 q 503 1151 557 1085 l 440 1229 z "},"Ã":{"ha":886,"x_min":21,"x_max":865,"o":"m 865 0 l 664 0 l 608 171 l 276 171 l 222 0 l 21 0 l 338 906 q 384 971 358 953 q 447 989 410 989 q 508 972 485 989 q 549 906 531 956 l 865 0 m 564 333 l 447 697 l 325 333 l 564 333 m 626 1251 l 690 1182 q 533 1100 608 1100 q 433 1128 482 1100 q 340 1157 383 1157 q 258 1124 296 1157 l 189 1196 q 269 1260 235 1242 q 351 1278 304 1278 q 448 1249 399 1278 q 545 1219 497 1219 q 626 1251 593 1219 z "},"Ä":{"ha":886,"x_min":21,"x_max":865,"o":"m 865 0 l 664 0 l 608 171 l 276 171 l 222 0 l 21 0 l 338 906 q 384 971 358 953 q 447 989 410 989 q 508 972 485 989 q 549 906 531 956 l 865 0 m 564 333 l 447 697 l 325 333 l 564 333 m 666 1283 q 678 1274 666 1283 q 690 1210 690 1264 q 666 1136 690 1156 q 597 1117 642 1117 q 528 1136 553 1117 q 504 1210 504 1156 q 528 1283 504 1264 q 597 1303 553 1303 q 666 1283 642 1303 m 352 1283 q 364 1274 352 1283 q 376 1210 376 1264 q 352 1136 376 1156 q 283 1117 328 1117 q 215 1136 239 1117 q 190 1210 190 1156 q 215 1283 190 1264 q 283 1303 239 1303 q 352 1283 328 1303 z "},"Å":{"ha":886,"x_min":21,"x_max":865,"o":"m 865 0 l 664 0 l 608 171 l 276 171 l 222 0 l 21 0 l 338 906 q 384 971 358 953 q 447 989 410 989 q 508 972 485 989 q 549 906 531 956 l 865 0 m 564 333 l 447 697 l 325 333 l 564 333 m 440 1410 q 531 1410 440 1410 q 622 1228 622 1410 q 440 1046 622 1046 q 258 1228 258 1046 q 440 1410 258 1410 m 500 1162 q 510 1170 500 1162 q 521 1228 521 1178 q 501 1293 521 1278 q 440 1308 481 1308 q 380 1293 400 1308 q 360 1228 360 1278 q 381 1162 360 1178 q 440 1146 401 1146 q 500 1162 479 1146 z "},"Æ":{"ha":1360,"x_min":26,"x_max":1288,"o":"m 636 333 l 636 697 l 411 333 l 636 333 m 1288 0 l 951 0 q 744 40 818 0 q 647 171 671 81 l 331 171 l 228 0 l 26 0 l 636 989 l 1288 989 l 1288 817 l 829 817 l 829 585 l 1150 585 l 1122 413 l 829 413 l 829 275 q 856 194 829 217 q 951 172 882 172 l 1288 172 l 1288 0 z "},"Ç":{"ha":800,"x_min":54,"x_max":794,"o":"m 615 383 l 794 383 q 713 108 794 208 q 482 -6 632 8 l 471 -33 q 538 -110 538 -51 q 498 -203 538 -169 q 376 -237 458 -237 q 311 -232 358 -237 l 340 -161 q 389 -165 365 -165 q 446 -122 446 -165 q 365 -75 446 -75 l 392 -7 q 54 438 54 17 l 54 521 q 249 961 54 872 q 433 997 325 997 q 691 910 592 997 q 790 660 790 824 l 610 660 q 556 783 594 742 q 433 825 517 825 q 289 764 336 825 q 250 617 256 721 q 247 526 247 583 l 247 440 q 292 222 247 281 q 434 164 338 164 q 567 217 531 164 q 615 383 604 271 z "},"È":{"ha":840,"x_min":115,"x_max":767,"o":"m 767 0 l 431 0 q 190 65 264 0 q 115 275 115 129 l 115 989 l 767 989 l 767 817 l 308 817 l 308 585 l 629 585 l 601 413 l 308 413 l 308 275 q 335 194 308 217 q 431 172 361 172 l 767 172 l 767 0 m 328 1185 l 225 1332 l 415 1332 l 468 1185 q 474 1154 474 1168 q 435 1118 474 1118 q 328 1185 375 1118 z "},"É":{"ha":840,"x_min":115,"x_max":767,"o":"m 767 0 l 431 0 q 190 65 264 0 q 115 275 115 129 l 115 989 l 767 989 l 767 817 l 308 817 l 308 585 l 629 585 l 601 413 l 308 413 l 308 275 q 335 194 308 217 q 431 172 361 172 l 767 172 l 767 0 m 639 1332 l 536 1185 q 429 1118 489 1118 q 390 1154 390 1118 q 396 1185 390 1168 l 449 1332 l 639 1332 z "},"Ê":{"ha":840,"x_min":115,"x_max":767,"o":"m 767 0 l 431 0 q 190 65 264 0 q 115 275 115 129 l 115 989 l 767 989 l 767 817 l 308 817 l 308 585 l 629 585 l 601 413 l 308 413 l 308 275 q 335 194 308 217 q 431 172 361 172 l 767 172 l 767 0 m 431 1229 l 368 1151 q 261 1085 314 1085 q 232 1097 243 1085 q 221 1125 221 1110 q 228 1151 221 1140 l 358 1319 l 503 1319 l 633 1151 q 640 1126 640 1140 q 628 1098 640 1111 q 600 1085 617 1085 q 493 1151 547 1085 l 431 1229 z "},"Ë":{"ha":840,"x_min":115,"x_max":767,"o":"m 767 0 l 431 0 q 190 65 264 0 q 115 275 115 129 l 115 989 l 767 989 l 767 817 l 308 817 l 308 585 l 629 585 l 601 413 l 308 413 l 308 275 q 335 194 308 217 q 431 172 361 172 l 767 172 l 767 0 m 656 1283 q 668 1274 656 1283 q 681 1210 681 1264 q 656 1136 681 1156 q 588 1117 632 1117 q 519 1136 543 1117 q 494 1210 494 1156 q 519 1283 494 1264 q 588 1303 543 1303 q 656 1283 632 1303 m 342 1283 q 355 1274 342 1283 q 367 1210 367 1264 q 342 1136 367 1156 q 274 1117 318 1117 q 205 1136 229 1117 q 181 1210 181 1156 q 205 1283 181 1264 q 274 1303 229 1303 q 342 1283 318 1303 z "},"Ì":{"ha":424,"x_min":43,"x_max":308,"o":"m 308 0 l 115 0 l 115 989 l 308 989 l 308 0 m 146 1185 l 43 1332 l 233 1332 l 286 1185 q 292 1154 292 1168 q 253 1118 292 1118 q 146 1185 193 1118 z "},"Í":{"ha":424,"x_min":115,"x_max":389,"o":"m 308 0 l 115 0 l 115 989 l 308 989 l 308 0 m 389 1332 l 286 1185 q 179 1118 239 1118 q 140 1154 140 1118 q 146 1185 140 1168 l 199 1332 l 389 1332 z "},"Î":{"ha":424,"x_min":0,"x_max":419,"o":"m 308 0 l 115 0 l 115 989 l 308 989 l 308 0 m 210 1229 l 147 1151 q 40 1085 93 1085 q 11 1097 22 1085 q 0 1125 0 1110 q 7 1151 0 1140 l 138 1319 l 282 1319 l 413 1151 q 419 1126 419 1140 q 408 1098 419 1111 q 379 1085 396 1085 q 272 1151 326 1085 l 210 1229 z "},"Ï":{"ha":424,"x_min":-37,"x_max":463,"o":"m 308 0 l 115 0 l 115 989 l 308 989 l 308 0 m 438 1283 q 450 1274 438 1283 q 463 1210 463 1264 q 438 1136 463 1156 q 369 1117 414 1117 q 301 1136 325 1117 q 276 1210 276 1156 q 301 1283 276 1264 q 369 1303 325 1303 q 438 1283 414 1303 m 124 1283 q 136 1274 124 1283 q 149 1210 149 1264 q 124 1136 149 1156 q 56 1117 100 1117 q -13 1136 11 1117 q -37 1210 -37 1156 q -13 1283 -37 1264 q 56 1303 11 1303 q 124 1283 100 1303 z "},"Ð":{"ha":947,"x_min":50,"x_max":876,"o":"m 50 426 l 50 574 l 129 574 l 129 989 l 514 989 q 775 894 681 989 q 865 708 851 818 q 875 499 875 631 l 876 392 q 851 221 871 290 q 775 94 832 151 q 514 0 681 0 q 215 63 301 0 q 129 274 129 126 l 129 426 l 50 426 m 640 233 q 674 322 667 265 q 682 497 682 378 q 674 670 682 617 q 640 756 667 724 q 496 817 590 817 l 322 817 l 322 574 l 503 574 l 503 426 l 322 426 l 322 269 q 360 193 322 214 q 494 172 397 172 q 640 233 590 172 z "},"Ñ":{"ha":989,"x_min":101,"x_max":886,"o":"m 886 989 l 886 100 q 858 22 886 54 q 793 -11 831 -11 q 636 100 697 -11 l 294 635 l 294 0 l 101 0 l 101 989 l 288 989 l 693 342 l 693 989 l 886 989 m 681 1251 l 744 1182 q 588 1100 663 1100 q 487 1128 536 1100 q 394 1157 438 1157 q 313 1124 350 1157 l 243 1196 q 324 1260 289 1242 q 406 1278 358 1278 q 502 1249 453 1278 q 599 1219 551 1219 q 681 1251 647 1219 z "},"Ò":{"ha":894,"x_min":54,"x_max":840,"o":"m 840 540 l 840 465 q 747 104 840 217 q 446 -8 653 -8 q 147 103 239 -8 q 54 468 54 215 l 54 521 q 148 881 54 765 q 447 997 242 997 q 840 540 840 997 m 647 474 l 647 540 q 600 768 647 714 q 447 825 553 825 q 292 767 342 825 q 250 617 256 724 q 247 521 247 582 l 247 469 q 269 268 249 322 q 447 164 308 164 q 608 233 568 164 q 640 331 635 283 q 647 474 647 390 m 344 1185 l 242 1332 l 432 1332 l 485 1185 q 490 1154 490 1168 q 451 1118 490 1118 q 344 1185 392 1118 z "},"Ó":{"ha":894,"x_min":54,"x_max":840,"o":"m 840 540 l 840 465 q 747 104 840 217 q 446 -8 653 -8 q 147 103 239 -8 q 54 468 54 215 l 54 521 q 148 881 54 765 q 447 997 242 997 q 840 540 840 997 m 647 474 l 647 540 q 600 768 647 714 q 447 825 553 825 q 292 767 342 825 q 250 617 256 724 q 247 521 247 582 l 247 469 q 269 268 249 322 q 447 164 308 164 q 608 233 568 164 q 640 331 635 283 q 647 474 647 390 m 657 1332 l 554 1185 q 447 1118 507 1118 q 408 1154 408 1118 q 414 1185 408 1168 l 467 1332 l 657 1332 z "},"Ô":{"ha":894,"x_min":54,"x_max":840,"o":"m 840 540 l 840 465 q 747 104 840 217 q 446 -8 653 -8 q 147 103 239 -8 q 54 468 54 215 l 54 521 q 148 881 54 765 q 447 997 242 997 q 840 540 840 997 m 647 474 l 647 540 q 600 768 647 714 q 447 825 553 825 q 292 767 342 825 q 250 617 256 724 q 247 521 247 582 l 247 469 q 269 268 249 322 q 447 164 308 164 q 608 233 568 164 q 640 331 635 283 q 647 474 647 390 m 447 1229 l 385 1151 q 278 1085 331 1085 q 249 1097 260 1085 q 238 1125 238 1110 q 244 1151 238 1140 l 375 1319 l 519 1319 l 650 1151 q 657 1126 657 1140 q 645 1098 657 1111 q 617 1085 633 1085 q 510 1151 564 1085 l 447 1229 z "},"Õ":{"ha":894,"x_min":54,"x_max":840,"o":"m 840 540 l 840 465 q 747 104 840 217 q 446 -8 653 -8 q 147 103 239 -8 q 54 468 54 215 l 54 521 q 148 881 54 765 q 447 997 242 997 q 840 540 840 997 m 647 474 l 647 540 q 600 768 647 714 q 447 825 553 825 q 292 767 342 825 q 250 617 256 724 q 247 521 247 582 l 247 469 q 269 268 249 322 q 447 164 308 164 q 608 233 568 164 q 640 331 635 283 q 647 474 647 390 m 633 1251 l 697 1182 q 540 1100 615 1100 q 440 1128 489 1100 q 347 1157 390 1157 q 265 1124 303 1157 l 196 1196 q 276 1260 242 1242 q 358 1278 311 1278 q 455 1249 406 1278 q 552 1219 504 1219 q 633 1251 600 1219 z "},"Ö":{"ha":894,"x_min":54,"x_max":840,"o":"m 840 540 l 840 465 q 747 104 840 217 q 446 -8 653 -8 q 147 103 239 -8 q 54 468 54 215 l 54 521 q 148 881 54 765 q 447 997 242 997 q 840 540 840 997 m 647 474 l 647 540 q 600 768 647 714 q 447 825 553 825 q 292 767 342 825 q 250 617 256 724 q 247 521 247 582 l 247 469 q 269 268 249 322 q 447 164 308 164 q 608 233 568 164 q 640 331 635 283 q 647 474 647 390 m 673 1283 q 685 1274 673 1283 q 697 1210 697 1264 q 673 1136 697 1156 q 604 1117 649 1117 q 535 1136 560 1117 q 511 1210 511 1156 q 535 1283 511 1264 q 604 1303 560 1303 q 673 1283 649 1303 m 359 1283 q 371 1274 359 1283 q 383 1210 383 1264 q 359 1136 383 1156 q 290 1117 335 1117 q 222 1136 246 1117 q 197 1210 197 1156 q 222 1283 197 1264 q 290 1303 246 1303 q 359 1283 335 1303 z "},"×":{"ha":754,"x_min":68,"x_max":686,"o":"m 686 201 l 572 88 l 376 283 l 182 88 l 68 201 l 264 397 l 68 593 l 182 707 l 376 511 l 572 707 l 686 593 l 490 397 l 686 201 z "},"Ø":{"ha":918,"x_min":54,"x_max":840,"o":"m 111 -62 l 175 74 q 54 469 54 182 l 54 542 q 148 885 54 772 q 447 997 242 997 q 600 975 529 997 l 635 1047 l 776 1047 l 714 914 q 840 540 840 804 l 840 465 q 747 104 840 217 q 447 -8 653 -8 q 288 13 356 -8 l 253 -62 l 111 -62 m 647 469 l 647 521 q 621 718 647 650 l 365 176 q 449 164 399 164 q 538 182 500 164 q 596 226 575 200 q 628 296 617 253 q 647 469 647 364 m 247 521 l 247 469 q 271 275 247 338 l 524 813 q 437 825 492 825 q 340 802 382 825 q 279 733 299 779 q 247 521 247 658 z "},"Ù":{"ha":928,"x_min":86,"x_max":842,"o":"m 842 989 l 842 339 q 733 85 842 178 q 464 -8 624 -8 q 195 85 304 -8 q 86 339 86 178 l 86 989 l 279 989 l 279 346 q 330 209 279 254 q 464 164 381 164 q 599 209 547 164 q 650 346 650 254 l 650 989 l 842 989 m 361 1185 l 258 1332 l 449 1332 l 501 1185 q 507 1154 507 1168 q 468 1118 507 1118 q 361 1185 408 1118 z "},"Ú":{"ha":928,"x_min":86,"x_max":842,"o":"m 842 989 l 842 339 q 733 85 842 178 q 464 -8 624 -8 q 195 85 304 -8 q 86 339 86 178 l 86 989 l 279 989 l 279 346 q 330 209 279 254 q 464 164 381 164 q 599 209 547 164 q 650 346 650 254 l 650 989 l 842 989 m 674 1332 l 571 1185 q 464 1118 524 1118 q 425 1154 425 1118 q 431 1185 425 1168 l 483 1332 l 674 1332 z "},"Û":{"ha":928,"x_min":86,"x_max":842,"o":"m 842 989 l 842 339 q 733 85 842 178 q 464 -8 624 -8 q 195 85 304 -8 q 86 339 86 178 l 86 989 l 279 989 l 279 346 q 330 209 279 254 q 464 164 381 164 q 599 209 547 164 q 650 346 650 254 l 650 989 l 842 989 m 464 1229 l 401 1151 q 294 1085 347 1085 q 265 1097 276 1085 q 254 1125 254 1110 q 261 1151 254 1140 l 392 1319 l 536 1319 l 667 1151 q 674 1126 674 1140 q 662 1098 674 1111 q 633 1085 650 1085 q 526 1151 581 1085 l 464 1229 z "},"Ü":{"ha":928,"x_min":86,"x_max":842,"o":"m 842 989 l 842 339 q 733 85 842 178 q 464 -8 624 -8 q 195 85 304 -8 q 86 339 86 178 l 86 989 l 279 989 l 279 346 q 330 209 279 254 q 464 164 381 164 q 599 209 547 164 q 650 346 650 254 l 650 989 l 842 989 m 690 1283 q 702 1274 690 1283 q 714 1210 714 1264 q 690 1136 714 1156 q 621 1117 665 1117 q 552 1136 576 1117 q 528 1210 528 1156 q 552 1283 528 1264 q 621 1303 576 1303 q 690 1283 665 1303 m 376 1283 q 388 1274 376 1283 q 400 1210 400 1264 q 376 1136 400 1156 q 307 1117 351 1117 q 238 1136 263 1117 q 214 1210 214 1156 q 238 1283 214 1264 q 307 1303 263 1303 q 376 1283 351 1303 z "},"Ý":{"ha":794,"x_min":4,"x_max":790,"o":"m 790 989 l 493 406 l 493 0 l 301 0 l 301 406 l 4 989 l 214 989 l 399 590 l 581 989 l 790 989 m 606 1332 l 503 1185 q 396 1118 456 1118 q 357 1154 357 1118 q 363 1185 357 1168 l 415 1332 l 606 1332 z "},"Þ":{"ha":879,"x_min":115,"x_max":797,"o":"m 797 500 q 471 192 797 192 l 308 192 l 308 0 l 115 0 l 115 989 l 308 989 l 308 807 l 471 807 q 720 733 643 807 q 797 500 797 658 m 576 391 q 590 405 576 391 q 604 500 604 418 q 576 608 604 582 q 461 635 547 635 l 308 635 l 308 364 l 461 364 q 576 391 547 364 z "},"ß":{"ha":833,"x_min":101,"x_max":758,"o":"m 758 301 q 485 -14 758 -14 l 413 -14 l 413 139 l 449 139 q 541 181 506 139 q 576 304 576 224 q 526 431 576 385 q 410 476 476 476 l 410 618 q 468 654 443 618 q 493 738 493 690 q 467 813 493 785 q 385 840 442 840 q 306 803 329 840 q 282 696 282 765 l 282 0 l 101 0 l 101 710 q 396 997 101 997 q 674 740 674 997 q 649 633 674 681 q 589 564 624 585 q 758 301 758 476 z "},"à":{"ha":742,"x_min":13,"x_max":647,"o":"m 260 939 l 157 1086 l 347 1086 l 400 939 q 406 908 406 922 q 367 872 406 872 q 260 939 307 872 m 647 0 l 526 0 l 471 96 l 278 -8 q 61 108 117 -8 q 23 231 33 165 q 13 369 13 297 q 14 474 13 440 q 21 553 15 508 q 37 629 26 599 q 67 692 47 660 q 114 744 86 725 q 276 788 176 788 l 467 788 l 647 799 l 647 0 m 467 253 l 467 625 l 329 625 q 223 567 253 625 q 193 392 193 508 q 222 229 193 276 q 329 182 250 182 l 467 253 z "},"á":{"ha":742,"x_min":13,"x_max":647,"o":"m 558 1086 l 456 939 q 349 872 408 872 q 310 908 310 872 q 315 939 310 922 l 368 1086 l 558 1086 m 647 0 l 526 0 l 471 96 l 278 -8 q 61 108 117 -8 q 23 231 33 165 q 13 369 13 297 q 14 474 13 440 q 21 553 15 508 q 37 629 26 599 q 67 692 47 660 q 114 744 86 725 q 276 788 176 788 l 467 788 l 647 799 l 647 0 m 467 253 l 467 625 l 329 625 q 223 567 253 625 q 193 392 193 508 q 222 229 193 276 q 329 182 250 182 l 467 253 z "},"â":{"ha":742,"x_min":13,"x_max":647,"o":"m 363 997 l 300 919 q 193 853 246 853 q 164 865 175 853 q 153 893 153 878 q 160 919 153 908 l 290 1088 l 435 1088 l 565 919 q 572 894 572 908 q 560 866 572 879 q 532 853 549 853 q 425 919 479 853 l 363 997 m 647 0 l 526 0 l 471 96 l 278 -8 q 61 108 117 -8 q 23 231 33 165 q 13 369 13 297 q 14 474 13 440 q 21 553 15 508 q 37 629 26 599 q 67 692 47 660 q 114 744 86 725 q 276 788 176 788 l 467 788 l 647 799 l 647 0 m 467 253 l 467 625 l 329 625 q 223 567 253 625 q 193 392 193 508 q 222 229 193 276 q 329 182 250 182 l 467 253 z "},"ã":{"ha":742,"x_min":13,"x_max":647,"o":"m 549 1006 l 613 936 q 456 854 531 854 q 355 883 404 854 q 262 911 306 911 q 181 878 218 911 l 111 950 q 192 1014 157 996 q 274 1032 226 1032 q 370 1003 321 1032 q 467 974 419 974 q 549 1006 515 974 m 647 0 l 526 0 l 471 96 l 278 -8 q 61 108 117 -8 q 23 231 33 165 q 13 369 13 297 q 14 474 13 440 q 21 553 15 508 q 37 629 26 599 q 67 692 47 660 q 114 744 86 725 q 276 788 176 788 l 467 788 l 647 799 l 647 0 m 467 253 l 467 625 l 329 625 q 223 567 253 625 q 193 392 193 508 q 222 229 193 276 q 329 182 250 182 l 467 253 z "},"ä":{"ha":742,"x_min":13,"x_max":647,"o":"m 588 1038 q 600 1028 588 1038 q 613 964 613 1018 q 588 890 613 910 q 519 871 564 871 q 451 890 475 871 q 426 964 426 910 q 451 1038 426 1018 q 519 1057 475 1057 q 588 1038 564 1057 m 274 1038 q 286 1028 274 1038 q 299 964 299 1018 q 274 890 299 910 q 206 871 250 871 q 137 890 161 871 q 113 964 113 910 q 137 1038 113 1018 q 206 1057 161 1057 q 274 1038 250 1057 m 647 0 l 526 0 l 471 96 l 278 -8 q 61 108 117 -8 q 23 231 33 165 q 13 369 13 297 q 14 474 13 440 q 21 553 15 508 q 37 629 26 599 q 67 692 47 660 q 114 744 86 725 q 276 788 176 788 l 467 788 l 647 799 l 647 0 m 467 253 l 467 625 l 329 625 q 223 567 253 625 q 193 392 193 508 q 222 229 193 276 q 329 182 250 182 l 467 253 z "},"å":{"ha":742,"x_min":13,"x_max":647,"o":"m 363 1175 q 453 1175 363 1175 q 544 993 544 1175 q 363 811 544 811 q 181 993 181 811 q 363 1175 181 1175 m 422 927 q 433 935 422 927 q 443 993 443 943 q 423 1058 443 1043 q 363 1074 403 1074 q 302 1058 322 1074 q 282 993 282 1043 q 303 927 282 943 q 363 911 324 911 q 422 927 401 911 m 647 0 l 526 0 l 471 96 l 278 -8 q 61 108 117 -8 q 23 231 33 165 q 13 369 13 297 q 14 474 13 440 q 21 553 15 508 q 37 629 26 599 q 67 692 47 660 q 114 744 86 725 q 276 788 176 788 l 467 788 l 647 799 l 647 0 m 467 253 l 467 625 l 329 625 q 223 567 253 625 q 193 392 193 508 q 222 229 193 276 q 329 182 250 182 l 467 253 z "},"æ":{"ha":1186,"x_min":43,"x_max":1139,"o":"m 497 235 l 497 351 l 326 351 q 241 315 271 351 q 211 235 211 278 q 238 166 211 192 q 317 140 265 140 l 497 235 m 678 478 l 975 478 q 943 624 975 588 q 835 660 911 660 q 719 622 760 660 q 678 478 678 585 m 1136 354 l 678 354 q 710 183 678 233 q 844 132 742 132 q 946 167 917 132 q 975 276 975 203 l 1138 276 q 1060 51 1138 119 q 849 -18 982 -18 q 659 13 732 -18 q 549 115 586 43 l 296 -7 q 115 55 188 -7 q 43 221 43 117 q 108 403 43 325 q 299 481 172 481 l 496 481 q 497 500 497 488 l 497 532 q 363 656 497 656 q 242 627 278 656 q 207 531 207 599 l 57 531 q 134 734 57 664 q 363 804 211 804 q 597 729 514 804 q 838 803 681 803 q 1139 468 1139 803 q 1136 354 1139 432 z "},"ç":{"ha":669,"x_min":43,"x_max":671,"o":"m 507 290 l 671 292 q 668 251 669 281 q 666 212 667 222 q 663 179 665 201 q 656 147 660 157 q 647 119 653 136 q 615 69 638 92 q 407 -17 547 -1 l 396 -46 q 463 -123 463 -64 q 423 -216 463 -182 q 301 -250 383 -250 q 236 -244 283 -250 l 265 -174 q 314 -178 290 -178 q 371 -135 371 -178 q 290 -87 371 -87 l 318 -17 q 125 69 192 -3 q 43 392 43 156 q 125 715 43 629 q 224 779 161 754 q 363 804 286 804 q 590 729 513 804 q 668 521 668 654 l 504 521 q 474 612 504 582 q 363 642 443 642 q 256 606 292 642 q 225 504 229 579 q 224 436 224 481 l 224 322 q 229 247 224 264 q 241 211 235 231 q 257 182 247 192 q 281 161 267 172 q 359 143 307 143 q 441 152 411 143 q 484 183 471 161 q 501 227 497 206 q 507 290 506 249 z "},"è":{"ha":761,"x_min":54,"x_max":699,"o":"m 696 354 l 238 354 q 269 183 238 233 q 404 132 301 132 q 506 167 476 132 q 535 276 535 203 l 697 276 q 619 51 697 119 q 408 -18 542 -18 q 203 20 278 -18 q 92 155 129 58 q 54 436 54 251 q 139 712 54 621 q 397 803 224 803 q 699 468 699 803 q 696 354 699 432 m 238 478 l 535 478 q 503 624 535 588 q 395 660 471 660 q 278 622 319 660 q 238 478 238 585 m 282 939 l 179 1086 l 369 1086 l 422 939 q 428 908 428 922 q 389 872 428 872 q 282 939 329 872 z "},"é":{"ha":761,"x_min":54,"x_max":699,"o":"m 696 354 l 238 354 q 269 183 238 233 q 404 132 301 132 q 506 167 476 132 q 535 276 535 203 l 697 276 q 619 51 697 119 q 408 -18 542 -18 q 203 20 278 -18 q 92 155 129 58 q 54 436 54 251 q 139 712 54 621 q 397 803 224 803 q 699 468 699 803 q 696 354 699 432 m 238 478 l 535 478 q 503 624 535 588 q 395 660 471 660 q 278 622 319 660 q 238 478 238 585 m 594 1086 l 492 939 q 385 872 444 872 q 346 908 346 872 q 351 939 346 922 l 404 1086 l 594 1086 z "},"ê":{"ha":761,"x_min":54,"x_max":699,"o":"m 696 354 l 238 354 q 269 183 238 233 q 404 132 301 132 q 506 167 476 132 q 535 276 535 203 l 697 276 q 619 51 697 119 q 408 -18 542 -18 q 203 20 278 -18 q 92 155 129 58 q 54 436 54 251 q 139 712 54 621 q 397 803 224 803 q 699 468 699 803 q 696 354 699 432 m 238 478 l 535 478 q 503 624 535 588 q 395 660 471 660 q 278 622 319 660 q 238 478 238 585 m 385 997 l 322 919 q 215 853 268 853 q 186 865 197 853 q 175 893 175 878 q 182 919 175 908 l 313 1088 l 457 1088 l 588 919 q 594 894 594 908 q 583 866 594 879 q 554 853 571 853 q 447 919 501 853 l 385 997 z "},"ë":{"ha":761,"x_min":54,"x_max":699,"o":"m 696 354 l 238 354 q 269 183 238 233 q 404 132 301 132 q 506 167 476 132 q 535 276 535 203 l 697 276 q 619 51 697 119 q 408 -18 542 -18 q 203 20 278 -18 q 92 155 129 58 q 54 436 54 251 q 139 712 54 621 q 397 803 224 803 q 699 468 699 803 q 696 354 699 432 m 238 478 l 535 478 q 503 624 535 588 q 395 660 471 660 q 278 622 319 660 q 238 478 238 585 m 610 1038 q 623 1028 610 1038 q 635 964 635 1018 q 610 890 635 910 q 542 871 586 871 q 473 890 497 871 q 449 964 449 910 q 473 1038 449 1018 q 542 1057 497 1057 q 610 1038 586 1057 m 297 1038 q 309 1028 297 1038 q 321 964 321 1018 q 297 890 321 910 q 228 871 272 871 q 159 890 183 871 q 135 964 135 910 q 159 1038 135 1018 q 228 1057 183 1057 q 297 1038 272 1057 z "},"ì":{"ha":382,"x_min":24,"x_max":282,"o":"m 282 0 l 101 0 l 101 724 l 282 724 l 282 0 m 126 939 l 24 1086 l 214 1086 l 267 939 q 272 908 272 922 q 233 872 272 872 q 126 939 174 872 z "},"í":{"ha":382,"x_min":101,"x_max":368,"o":"m 282 0 l 101 0 l 101 724 l 282 724 l 282 0 m 368 1086 l 265 939 q 158 872 218 872 q 119 908 119 872 q 125 939 119 922 l 178 1086 l 368 1086 z "},"î":{"ha":382,"x_min":-15,"x_max":404,"o":"m 282 0 l 101 0 l 101 724 l 282 724 l 282 0 m 194 997 l 132 919 q 25 853 78 853 q -4 865 7 853 q -15 893 -15 878 q -8 919 -15 908 l 122 1088 l 267 1088 l 397 919 q 404 894 404 908 q 392 866 404 879 q 364 853 381 853 q 257 919 311 853 l 194 997 z "},"ï":{"ha":382,"x_min":-60,"x_max":440,"o":"m 282 0 l 101 0 l 101 724 l 282 724 l 282 0 m 416 1038 q 428 1028 416 1038 q 440 964 440 1018 q 416 890 440 910 q 347 871 392 871 q 278 890 303 871 q 254 964 254 910 q 278 1038 254 1018 q 347 1057 303 1057 q 416 1038 392 1057 m 102 1038 q 114 1028 102 1038 q 126 964 126 1018 q 102 890 126 910 q 33 871 78 871 q -35 890 -11 871 q -60 964 -60 910 q -35 1038 -60 1018 q 33 1057 -11 1057 q 102 1038 78 1057 z "},"ð":{"ha":763,"x_min":43,"x_max":694,"o":"m 497 211 l 497 597 l 360 597 q 224 376 224 597 q 252 215 224 263 q 360 168 281 168 q 385 171 367 169 q 408 173 403 172 q 428 176 414 174 q 448 181 442 179 q 464 188 454 183 q 497 211 479 193 m 346 808 l 346 914 l 433 943 q 369 1044 414 978 l 550 1044 l 582 994 l 694 1032 l 694 926 l 626 903 q 678 597 678 768 l 678 151 q 360 -8 538 -8 q 99 100 163 -8 q 55 219 67 156 q 43 351 43 282 q 44 451 43 419 q 51 525 46 482 q 67 598 57 568 q 97 660 78 628 q 144 714 117 693 q 307 760 207 760 l 497 760 q 474 851 490 806 l 346 808 z "},"ñ":{"ha":796,"x_min":88,"x_max":717,"o":"m 717 0 l 536 0 l 536 507 q 508 600 536 575 q 431 625 481 625 l 268 557 l 268 0 l 88 0 l 88 793 l 222 793 l 264 699 l 486 801 q 648 733 579 801 q 717 532 717 664 l 717 0 m 589 1017 l 653 947 q 496 865 571 865 q 395 894 444 865 q 302 922 346 922 q 221 889 258 922 l 151 961 q 232 1025 197 1007 q 314 1043 267 1043 q 410 1014 361 1043 q 508 985 460 985 q 589 1017 556 985 z "},"ò":{"ha":754,"x_min":44,"x_max":713,"o":"m 532 358 l 532 431 q 497 606 532 576 q 371 642 457 642 q 255 591 285 642 q 225 436 225 540 l 225 364 q 249 213 225 272 q 378 143 276 143 q 499 186 460 143 q 531 293 526 218 q 532 358 532 315 m 713 400 q 615 56 713 143 q 378 -19 533 -19 q 108 97 181 -19 q 44 400 44 204 q 108 688 44 583 q 373 804 182 804 q 638 702 564 804 q 713 400 713 600 m 269 939 l 167 1086 l 357 1086 l 410 939 q 415 908 415 922 q 376 872 415 872 q 269 939 317 872 z "},"ó":{"ha":754,"x_min":46,"x_max":714,"o":"m 533 358 l 533 431 q 500 606 533 576 q 372 642 458 642 q 256 591 286 642 q 226 436 226 540 l 226 364 q 250 213 226 272 q 379 143 278 143 q 500 186 461 143 q 532 293 528 218 q 533 358 533 315 m 714 400 q 617 56 714 143 q 379 -19 535 -19 q 111 97 181 -19 q 46 400 46 204 q 111 688 46 583 q 374 804 183 804 q 640 702 565 804 q 714 400 714 600 m 588 1086 l 485 939 q 378 872 438 872 q 339 908 339 872 q 344 939 339 922 l 397 1086 l 588 1086 z "},"ô":{"ha":754,"x_min":42,"x_max":710,"o":"m 529 358 l 529 431 q 494 606 529 576 q 368 642 454 642 q 252 591 282 642 q 222 436 222 540 l 222 364 q 246 213 222 272 q 375 143 274 143 q 496 186 457 143 q 528 293 524 218 q 529 358 529 315 m 710 400 q 613 56 710 143 q 375 -19 531 -19 q 106 97 178 -19 q 42 400 42 204 q 106 688 42 583 q 370 804 179 804 q 635 702 561 804 q 710 400 710 600 m 378 997 l 315 919 q 208 853 261 853 q 179 865 190 853 q 168 893 168 878 q 175 919 168 908 l 306 1088 l 450 1088 l 581 919 q 588 894 588 908 q 576 866 588 879 q 547 853 564 853 q 440 919 494 853 l 378 997 z "},"õ":{"ha":754,"x_min":44,"x_max":713,"o":"m 532 358 l 532 431 q 497 606 532 576 q 371 642 457 642 q 255 591 285 642 q 225 436 225 540 l 225 364 q 249 213 225 272 q 378 143 276 143 q 499 186 460 143 q 531 293 526 218 q 532 358 532 315 m 713 400 q 615 56 713 143 q 378 -19 533 -19 q 108 97 181 -19 q 44 400 44 204 q 108 688 44 583 q 373 804 182 804 q 638 702 564 804 q 713 400 713 600 m 564 1019 l 628 950 q 471 868 546 868 q 370 897 419 868 q 277 925 321 925 q 196 892 233 925 l 126 964 q 207 1028 172 1010 q 289 1046 242 1046 q 385 1017 336 1046 q 483 988 435 988 q 564 1019 531 988 z "},"ö":{"ha":754,"x_min":44,"x_max":713,"o":"m 532 358 l 532 431 q 497 606 532 576 q 371 642 457 642 q 255 591 285 642 q 225 436 225 540 l 225 364 q 249 213 225 272 q 378 143 276 143 q 499 186 460 143 q 531 293 526 218 q 532 358 532 315 m 713 400 q 615 56 713 143 q 378 -19 533 -19 q 108 97 181 -19 q 44 400 44 204 q 108 688 44 583 q 373 804 182 804 q 638 702 564 804 q 713 400 713 600 m 603 1038 q 616 1028 603 1038 q 628 964 628 1018 q 603 890 628 910 q 535 871 579 871 q 466 890 490 871 q 442 964 442 910 q 466 1038 442 1018 q 535 1057 490 1057 q 603 1038 579 1057 m 290 1038 q 302 1028 290 1038 q 314 964 314 1018 q 290 890 314 910 q 221 871 265 871 q 152 890 176 871 q 128 964 128 910 q 152 1038 128 1018 q 221 1057 176 1057 q 290 1038 265 1057 z "},"÷":{"ha":754,"x_min":64,"x_max":690,"o":"m 690 313 l 64 313 l 64 481 l 690 481 l 690 313 m 470 781 q 481 770 470 781 q 492 690 492 760 q 470 599 492 621 q 379 576 449 576 q 288 599 310 576 q 265 690 265 621 q 288 781 265 760 q 379 803 310 803 q 470 781 449 803 m 470 205 q 481 194 470 205 q 492 114 492 183 q 470 22 492 44 q 379 0 449 0 q 288 22 310 0 q 265 114 265 44 q 288 205 265 183 q 379 226 310 226 q 470 205 449 226 z "},"ø":{"ha":754,"x_min":43,"x_max":711,"o":"m 614 56 q 376 -19 532 -19 q 275 -10 326 -19 l 250 -62 l 115 -62 l 163 38 q 43 400 43 128 q 108 688 43 583 q 376 804 181 804 q 517 783 458 804 l 529 808 l 664 808 l 621 718 q 711 383 711 624 q 614 56 711 143 m 224 436 l 224 364 q 246 213 224 260 l 446 633 q 376 642 417 642 q 253 591 283 642 q 224 436 224 540 m 531 358 l 531 431 q 528 521 531 494 l 349 144 q 389 143 357 143 q 451 156 421 143 q 497 187 482 169 q 519 238 513 204 q 531 358 531 283 z "},"ù":{"ha":796,"x_min":65,"x_max":694,"o":"m 694 0 l 560 0 l 518 94 l 296 -8 q 134 60 203 -8 q 65 261 65 129 l 65 793 l 246 793 l 246 300 q 351 168 246 168 l 514 256 l 514 793 l 694 793 l 694 0 m 290 939 l 188 1086 l 378 1086 l 431 939 q 436 908 436 922 q 397 872 436 872 q 290 939 338 872 z "},"ú":{"ha":796,"x_min":65,"x_max":694,"o":"m 694 0 l 560 0 l 518 94 l 296 -8 q 134 60 203 -8 q 65 261 65 129 l 65 793 l 246 793 l 246 300 q 351 168 246 168 l 514 256 l 514 793 l 694 793 l 694 0 m 603 1086 l 500 939 q 393 872 453 872 q 354 908 354 872 q 360 939 354 922 l 413 1086 l 603 1086 z "},"û":{"ha":796,"x_min":65,"x_max":694,"o":"m 694 0 l 560 0 l 518 94 l 296 -8 q 134 60 203 -8 q 65 261 65 129 l 65 793 l 246 793 l 246 300 q 351 168 246 168 l 514 256 l 514 793 l 694 793 l 694 0 m 393 997 l 331 919 q 224 853 276 853 q 194 865 206 853 q 183 893 183 878 q 190 919 183 908 l 321 1088 l 465 1088 l 596 919 q 603 894 603 908 q 591 866 603 879 q 563 853 579 853 q 456 919 510 853 l 393 997 z "},"ü":{"ha":796,"x_min":65,"x_max":694,"o":"m 694 0 l 560 0 l 518 94 l 296 -8 q 134 60 203 -8 q 65 261 65 129 l 65 793 l 246 793 l 246 300 q 351 168 246 168 l 514 256 l 514 793 l 694 793 l 694 0 m 619 1038 q 631 1028 619 1038 q 643 964 643 1018 q 619 890 643 910 q 550 871 594 871 q 481 890 506 871 q 457 964 457 910 q 481 1038 457 1018 q 550 1057 506 1057 q 619 1038 594 1057 m 305 1038 q 317 1028 305 1038 q 329 964 329 1018 q 305 890 329 910 q 236 871 281 871 q 167 890 192 871 q 143 964 143 910 q 167 1038 143 1018 q 236 1057 192 1057 q 305 1038 281 1057 z "},"ý":{"ha":747,"x_min":33,"x_max":708,"o":"m 708 793 l 407 -89 q 353 -182 386 -149 q 197 -237 297 -237 l 113 -237 l 113 -75 l 168 -75 q 226 -62 207 -75 q 258 -10 244 -49 l 272 29 l 33 793 l 224 793 l 365 242 l 518 793 l 708 793 m 576 1086 l 474 939 q 367 872 426 872 q 328 908 328 872 q 333 939 328 922 l 386 1086 l 576 1086 z "},"þ":{"ha":781,"x_min":101,"x_max":735,"o":"m 731 500 q 735 372 735 449 q 732 253 735 296 q 721 164 729 211 q 694 89 713 117 q 644 36 675 61 q 457 -8 590 -8 l 282 92 l 282 -265 l 101 -265 l 101 1043 l 282 1043 l 282 660 q 457 732 347 732 q 667 676 600 732 q 731 500 719 631 m 404 168 q 527 210 500 168 q 554 367 554 253 q 527 526 554 482 q 404 569 500 569 l 282 569 l 282 238 l 404 168 z "},"ÿ":{"ha":686,"x_min":6,"x_max":681,"o":"m 681 793 l 379 -89 q 325 -182 358 -149 q 169 -237 269 -237 l 85 -237 l 85 -75 l 140 -75 q 198 -62 179 -75 q 231 -10 217 -49 l 244 29 l 6 793 l 196 793 l 338 242 l 490 793 l 681 793 m 565 1038 q 577 1028 565 1038 q 589 964 589 1018 q 565 890 589 910 q 496 871 540 871 q 427 890 451 871 q 403 964 403 910 q 427 1038 403 1018 q 496 1057 451 1057 q 565 1038 540 1057 m 251 1038 q 263 1028 251 1038 q 275 964 275 1018 q 251 890 275 910 q 182 871 226 871 q 113 890 138 871 q 89 964 89 910 q 113 1038 89 1018 q 182 1057 138 1057 q 251 1038 226 1057 z "},"ħ":{"ha":815,"x_min":-1,"x_max":739,"o":"m 410 825 l 286 825 l 286 699 l 515 801 q 688 732 638 801 q 739 538 739 663 l 739 0 l 558 0 l 558 497 q 458 625 558 625 l 286 557 l 286 0 l 106 0 l 106 825 l -1 825 l -1 946 l 106 946 l 106 1044 l 286 1044 l 286 946 l 410 946 l 410 825 z "},"Ĩ":{"ha":424,"x_min":-39,"x_max":463,"o":"m 399 1251 l 463 1182 q 306 1100 381 1100 q 205 1128 254 1100 q 112 1157 156 1157 q 31 1124 68 1157 l -39 1196 q 42 1260 7 1242 q 124 1278 76 1278 q 220 1249 171 1278 q 317 1219 269 1219 q 399 1251 365 1219 m 308 0 l 115 0 l 115 989 l 308 989 l 308 0 z "},"ĩ":{"ha":382,"x_min":-60,"x_max":442,"o":"m 378 1006 l 442 936 q 285 854 360 854 q 184 883 233 854 q 91 911 135 911 q 10 878 47 911 l -60 950 q 21 1014 -14 996 q 103 1032 56 1032 q 199 1003 150 1032 q 297 974 249 974 q 378 1006 344 974 m 282 0 l 101 0 l 101 724 l 282 724 l 282 0 z "},"ı":{"ha":382,"x_min":101,"x_max":282,"o":"m 282 0 l 101 0 l 101 724 l 282 724 l 282 0 z "},"Ĳ":{"ha":1133,"x_min":115,"x_max":1044,"o":"m 308 0 l 115 0 l 115 989 l 308 989 l 308 0 m 1044 989 l 1044 353 q 963 73 1044 154 q 725 -8 881 -8 q 558 18 625 -8 q 433 101 490 44 l 542 219 q 613 180 565 196 q 723 164 661 164 q 818 194 785 164 q 851 306 851 224 l 851 989 l 1044 989 z "},"ĳ":{"ha":764,"x_min":88,"x_max":679,"o":"m 664 764 l 664 -29 q 610 -175 664 -114 q 453 -236 557 -236 l 350 -236 l 350 -83 l 419 -83 q 483 -18 483 -83 l 483 764 l 664 764 m 574 1096 q 607 1096 574 1096 q 659 1076 639 1096 q 679 991 679 1056 q 659 906 679 926 q 575 886 639 886 q 490 907 511 886 q 469 992 469 928 q 490 1076 469 1056 q 574 1096 510 1096 m 193 1096 q 226 1096 193 1096 q 278 1076 258 1096 q 297 991 297 1056 q 277 906 297 926 q 192 886 257 886 q 108 907 128 886 q 88 992 88 928 q 108 1076 88 1056 q 193 1096 128 1096 m 282 0 l 101 0 l 101 764 l 282 764 l 282 0 z "},"Ĵ":{"ha":743,"x_min":10,"x_max":744,"o":"m 535 1228 l 472 1150 q 365 1083 418 1083 q 336 1096 347 1083 q 325 1124 325 1108 q 332 1150 325 1139 l 463 1318 l 607 1318 l 738 1150 q 744 1124 744 1139 q 733 1097 744 1110 q 704 1083 721 1083 q 597 1150 651 1083 l 535 1228 m 621 989 l 621 353 q 539 73 621 154 q 301 -8 457 -8 q 134 18 201 -8 q 10 101 67 44 l 118 219 q 190 180 142 196 q 299 164 238 164 q 394 194 361 164 q 428 306 428 224 l 428 989 l 621 989 z "},"ĵ":{"ha":382,"x_min":-32,"x_max":401,"o":"m 192 997 l 129 919 q 22 853 75 853 q -7 865 4 853 q -18 893 -18 878 q -11 919 -18 908 l 119 1088 l 264 1088 l 394 919 q 401 894 401 908 q 390 866 401 879 q 361 853 378 853 q 254 919 308 853 l 192 997 m 282 764 l 282 -29 q 228 -175 282 -114 q 71 -236 175 -236 l -32 -236 l -32 -83 l 38 -83 q 101 -18 101 -83 l 101 764 l 282 764 z "},"ķ":{"ha":776,"x_min":99,"x_max":783,"o":"m 494 -83 l 494 -201 q 435 -356 494 -283 q 310 -454 376 -428 l 310 -83 l 494 -83 m 783 0 l 567 0 l 358 281 l 279 168 l 279 0 l 99 0 l 99 1044 l 279 1044 l 279 385 l 532 761 l 736 761 l 476 406 l 783 0 z "},"ĸ":{"ha":776,"x_min":99,"x_max":783,"o":"m 783 0 l 567 0 l 368 271 q 326 213 340 240 q 279 114 289 142 l 279 0 l 99 0 l 99 793 l 279 793 l 279 385 q 384 559 310 465 q 544 731 458 653 l 776 731 q 601 577 693 675 q 478 418 508 479 l 783 0 z "},"Ŀ":{"ha":825,"x_min":115,"x_max":725,"o":"m 725 0 l 431 0 q 190 65 264 0 q 115 275 115 129 l 115 989 l 308 989 l 308 275 q 335 194 308 217 q 431 172 361 172 l 725 172 l 725 0 m 581 679 q 611 679 581 679 q 658 661 640 679 q 676 584 676 643 q 658 506 676 525 q 581 488 640 488 q 503 506 522 488 q 485 584 485 525 q 503 661 485 643 q 581 679 522 679 z "},"ŀ":{"ha":642,"x_min":94,"x_max":592,"o":"m 570 652 q 581 641 570 652 q 592 561 592 631 q 570 469 592 492 q 479 447 549 447 q 388 469 410 447 q 365 561 365 492 q 388 652 365 631 q 479 674 410 674 q 570 652 549 674 m 275 0 l 94 -1 l 94 1044 l 275 1044 l 275 0 z "},"Ł":{"ha":824,"x_min":51,"x_max":753,"o":"m 753 0 l 458 0 q 217 65 292 0 q 143 275 143 129 l 143 354 l 51 296 l 51 457 l 143 514 l 143 989 l 336 989 l 336 636 l 511 747 l 511 588 l 336 476 l 336 275 q 363 194 336 217 q 458 172 389 172 l 753 172 l 753 0 z "},"ł":{"ha":428,"x_min":42,"x_max":381,"o":"m 297 0 l 117 -1 l 117 447 l 42 401 l 42 553 l 117 600 l 117 1044 l 297 1044 l 297 708 l 381 760 l 381 608 l 297 556 l 297 0 z "},"Ń":{"ha":971,"x_min":101,"x_max":886,"o":"m 707 1319 l 604 1172 q 497 1106 557 1106 q 458 1142 458 1106 q 464 1172 458 1156 l 517 1319 l 707 1319 m 886 989 l 886 100 q 858 22 886 54 q 793 -11 831 -11 q 636 100 697 -11 l 294 635 l 294 0 l 101 0 l 101 989 l 288 989 l 693 342 l 693 989 l 886 989 z "},"ń":{"ha":796,"x_min":88,"x_max":717,"o":"m 572 1086 l 469 939 q 363 872 422 872 q 324 908 324 872 q 329 939 324 922 l 382 1086 l 572 1086 m 717 0 l 536 0 l 536 507 q 508 600 536 575 q 431 625 481 625 l 268 557 l 268 0 l 88 0 l 88 793 l 222 793 l 264 699 l 486 801 q 648 733 579 801 q 717 532 717 664 l 717 0 z "},"Œ":{"ha":1342,"x_min":54,"x_max":1297,"o":"m 647 474 l 647 540 q 600 768 647 714 q 447 825 553 825 q 292 767 342 825 q 250 617 256 724 q 247 521 247 582 l 247 469 q 269 268 249 322 q 447 164 308 164 q 608 233 568 164 q 640 331 635 283 q 647 474 647 390 m 1297 0 l 961 0 q 714 69 785 0 q 447 -8 622 -8 q 147 103 239 -8 q 54 468 54 215 l 54 521 q 147 876 54 764 q 447 989 240 989 l 1297 989 l 1297 817 l 839 817 l 839 585 l 1160 585 l 1132 413 l 839 413 l 839 275 q 865 194 839 217 q 961 172 892 172 l 1297 172 l 1297 0 z "},"œ":{"ha":1224,"x_min":43,"x_max":1172,"o":"m 531 358 l 531 431 q 497 606 531 576 q 369 642 456 642 q 253 591 283 642 q 224 436 224 540 l 224 364 q 247 213 224 272 q 376 143 275 143 q 497 186 458 143 q 529 293 525 218 q 531 358 531 315 m 711 478 l 1008 478 q 976 624 1008 588 q 869 660 944 660 q 752 622 793 660 q 711 478 711 585 m 882 -18 q 619 61 697 -18 q 376 -19 542 -19 q 108 97 178 -19 q 43 400 43 204 q 108 688 43 583 q 376 804 181 804 q 619 719 539 804 q 871 803 703 803 q 1172 468 1172 803 q 1169 354 1172 432 l 711 354 q 743 183 711 233 q 878 132 775 132 q 979 167 950 132 q 1008 276 1008 203 l 1171 276 q 1093 51 1171 119 q 882 -18 1015 -18 z "},"Ŕ":{"ha":908,"x_min":115,"x_max":864,"o":"m 635 1332 l 532 1185 q 425 1118 485 1118 q 386 1154 386 1118 q 392 1185 386 1168 l 444 1332 l 635 1332 m 864 0 l 640 0 l 447 367 l 308 367 l 308 0 l 115 0 l 115 776 q 167 938 115 888 q 339 989 218 989 l 503 989 q 737 899 650 989 q 824 672 824 810 q 772 499 824 572 q 643 399 719 426 l 864 0 m 490 528 q 591 570 551 528 q 631 676 631 613 q 592 778 631 739 q 490 817 554 817 l 394 817 q 308 729 308 817 l 308 528 l 490 528 z "},"Ŗ":{"ha":908,"x_min":115,"x_max":864,"o":"m 864 0 l 640 0 l 447 367 l 308 367 l 308 0 l 115 0 l 115 776 q 167 938 115 888 q 339 989 218 989 l 503 989 q 737 899 650 989 q 824 672 824 810 q 772 499 824 572 q 643 399 719 426 l 864 0 m 490 528 q 591 570 551 528 q 631 676 631 613 q 592 778 631 739 q 490 817 554 817 l 394 817 q 308 729 308 817 l 308 528 l 490 528 m 547 -86 l 547 -204 q 488 -358 547 -286 q 363 -457 429 -431 l 363 -86 l 547 -86 z "},"ŗ":{"ha":542,"x_min":74,"x_max":522,"o":"m 522 790 l 472 613 q 425 621 451 621 q 254 561 356 621 l 254 0 l 74 0 l 74 793 l 208 793 l 250 724 l 442 803 q 479 804 456 804 q 522 790 503 804 m 261 -82 l 261 -200 q 202 -354 261 -282 q 76 -453 143 -426 l 76 -82 l 261 -82 z "},"Ř":{"ha":908,"x_min":115,"x_max":864,"o":"m 454 1176 l 517 1254 q 624 1321 571 1321 q 653 1308 642 1321 q 664 1281 664 1296 q 657 1254 664 1265 l 526 1086 l 382 1086 l 251 1254 q 244 1280 244 1265 q 256 1308 244 1294 q 285 1321 268 1321 q 392 1254 338 1321 l 454 1176 m 864 0 l 640 0 l 447 367 l 308 367 l 308 0 l 115 0 l 115 776 q 167 938 115 888 q 339 989 218 989 l 503 989 q 737 899 650 989 q 824 672 824 810 q 772 499 824 572 q 643 399 719 426 l 864 0 m 490 528 q 591 570 551 528 q 631 676 631 613 q 592 778 631 739 q 490 817 554 817 l 394 817 q 308 729 308 817 l 308 528 l 490 528 z "},"ř":{"ha":542,"x_min":61,"x_max":522,"o":"m 271 942 l 333 1019 q 440 1086 388 1086 q 469 1074 458 1086 q 481 1046 481 1061 q 474 1019 481 1031 l 343 851 l 199 851 l 68 1019 q 61 1045 61 1031 q 73 1073 61 1060 q 101 1086 85 1086 q 208 1019 154 1086 l 271 942 m 522 790 l 472 613 q 425 621 451 621 q 254 561 356 621 l 254 0 l 74 0 l 74 793 l 208 793 l 250 724 l 442 803 q 479 804 456 804 q 522 790 503 804 z "},"Š":{"ha":821,"x_min":39,"x_max":782,"o":"m 782 292 q 667 73 782 154 q 388 -8 551 -8 q 158 61 264 -8 q 72 163 104 97 q 39 314 39 228 l 214 322 q 265 205 214 246 q 398 164 317 164 q 536 197 479 164 q 593 286 593 229 q 475 404 593 386 l 314 421 q 122 507 193 439 q 51 703 51 575 q 151 914 51 831 q 401 997 250 997 q 660 918 553 997 q 767 717 767 839 l 594 708 q 550 782 586 753 q 411 829 493 829 q 283 793 329 829 q 238 708 238 757 q 272 630 238 658 q 358 594 307 601 l 517 578 q 782 292 782 542 m 408 1174 l 471 1251 q 578 1318 525 1318 q 607 1306 596 1318 q 618 1278 618 1293 q 611 1251 618 1263 l 481 1083 l 336 1083 l 206 1251 q 199 1277 199 1263 q 210 1305 199 1292 q 239 1318 222 1318 q 346 1251 292 1318 l 408 1174 z "},"š":{"ha":696,"x_min":53,"x_max":654,"o":"m 654 211 q 565 46 650 103 q 357 -11 481 -11 q 114 53 181 -11 q 53 229 53 111 l 217 236 q 250 152 218 174 q 357 131 282 131 q 476 217 476 131 q 388 318 476 306 l 247 336 q 54 574 54 360 q 140 743 54 682 q 353 804 226 804 q 550 758 467 804 q 649 553 649 703 l 492 546 q 351 653 482 653 q 260 628 290 653 q 229 574 229 604 q 296 486 229 496 l 465 463 q 654 211 654 438 m 347 942 l 410 1019 q 517 1086 464 1086 q 546 1074 535 1086 q 557 1046 557 1061 q 550 1019 557 1031 l 419 851 l 275 851 l 144 1019 q 138 1045 138 1031 q 149 1073 138 1060 q 178 1086 161 1086 q 285 1019 231 1086 l 347 942 z "},"Ÿ":{"ha":794,"x_min":4,"x_max":790,"o":"m 790 989 l 493 406 l 493 0 l 301 0 l 301 406 l 4 989 l 214 989 l 399 590 l 581 989 l 790 989 m 622 1283 q 634 1274 622 1283 q 646 1210 646 1264 q 622 1136 646 1156 q 553 1117 597 1117 q 484 1136 508 1117 q 460 1210 460 1156 q 484 1283 460 1264 q 553 1303 508 1303 q 622 1283 597 1303 m 308 1283 q 320 1274 308 1283 q 332 1210 332 1264 q 308 1136 332 1156 q 239 1117 283 1117 q 170 1136 194 1117 q 146 1210 146 1156 q 170 1283 146 1264 q 239 1303 194 1303 q 308 1283 283 1303 z "},"Ž":{"ha":761,"x_min":46,"x_max":706,"o":"m 706 0 l 203 0 q 86 36 126 0 q 46 131 46 72 q 89 253 46 189 l 478 817 l 74 817 l 74 989 l 706 989 l 706 836 l 254 172 l 706 172 l 706 0 m 385 1174 l 447 1251 q 554 1318 501 1318 q 583 1306 572 1318 q 594 1278 594 1293 q 588 1251 594 1263 l 457 1083 l 313 1083 l 182 1251 q 175 1277 175 1263 q 187 1305 175 1292 q 215 1318 199 1318 q 322 1251 268 1318 l 385 1174 z "},"ž":{"ha":664,"x_min":24,"x_max":603,"o":"m 603 0 l 171 0 q 62 30 100 0 q 24 114 24 60 q 69 228 24 168 l 386 638 l 69 638 l 69 793 l 603 793 l 603 656 l 222 156 l 603 156 l 603 0 m 336 942 l 399 1019 q 506 1086 453 1086 q 535 1074 524 1086 q 546 1046 546 1061 q 539 1019 546 1031 l 408 851 l 264 851 l 133 1019 q 126 1045 126 1031 q 138 1073 126 1060 q 167 1086 150 1086 q 274 1019 219 1086 l 336 942 z "},"ƒ":{"ha":522,"x_min":6,"x_max":536,"o":"m 465 579 l 318 579 l 185 -235 l 6 -235 l 138 579 l 13 579 l 33 717 l 158 717 l 178 839 q 254 985 192 925 q 419 1046 317 1046 l 536 1046 l 511 893 l 426 893 q 357 828 368 893 l 339 717 l 486 717 l 465 579 z "},"ˆ":{"ha":694,"x_min":138,"x_max":557,"o":"m 347 983 l 285 906 q 178 839 231 839 q 149 851 160 839 q 138 879 138 864 q 144 906 138 894 l 275 1074 l 419 1074 l 550 906 q 557 880 557 894 q 545 852 557 865 q 517 839 533 839 q 410 906 464 839 l 347 983 z "},"ˇ":{"ha":694,"x_min":138,"x_max":557,"o":"m 347 928 l 410 1006 q 517 1072 464 1072 q 546 1060 535 1072 q 557 1032 557 1047 q 550 1006 557 1017 l 419 838 l 275 838 l 144 1006 q 138 1031 138 1017 q 149 1059 138 1046 q 178 1072 161 1072 q 285 1006 231 1072 l 347 928 z "},"˘":{"ha":694,"x_min":119,"x_max":575,"o":"m 454 1082 l 575 1082 q 507 924 569 975 q 348 872 444 872 q 188 924 251 872 q 119 1082 125 975 l 242 1082 q 348 999 251 999 q 454 1082 444 999 z "},"˙":{"ha":694,"x_min":246,"x_max":438,"o":"m 342 1050 q 372 1050 342 1050 q 419 1032 401 1050 q 438 955 438 1014 q 419 877 438 896 q 342 858 401 858 q 265 877 283 858 q 246 955 246 896 q 265 1032 246 1014 q 342 1050 283 1050 z "},"˚":{"ha":694,"x_min":165,"x_max":529,"o":"m 347 1175 q 438 1175 347 1175 q 529 993 529 1175 q 347 811 529 811 q 165 993 165 811 q 347 1175 165 1175 m 407 927 q 417 935 407 927 q 428 993 428 943 q 408 1058 428 1043 q 347 1074 388 1074 q 287 1058 307 1074 q 267 993 267 1043 q 288 927 267 943 q 347 911 308 911 q 407 927 386 911 z "},"˛":{"ha":692,"x_min":235,"x_max":453,"o":"m 453 -254 l 321 -301 q 235 -69 235 -235 l 369 -69 q 387 -173 369 -129 q 453 -254 404 -217 z "},"˜":{"ha":694,"x_min":96,"x_max":597,"o":"m 533 1006 l 597 936 q 440 854 515 854 q 340 883 389 854 q 247 911 290 911 q 165 878 203 911 l 96 950 q 176 1014 142 996 q 258 1032 211 1032 q 355 1003 306 1032 q 452 974 404 974 q 533 1006 500 974 z "},"˝":{"ha":694,"x_min":113,"x_max":650,"o":"m 361 1086 l 258 939 q 151 872 211 872 q 113 908 113 872 q 118 939 113 922 l 171 1086 l 361 1086 m 650 1086 l 547 939 q 440 872 500 872 q 401 908 401 872 q 407 939 401 922 l 460 1086 l 650 1086 z "},"̇":{"ha":694,"x_min":246,"x_max":438,"o":"m 342 1050 q 372 1050 342 1050 q 419 1032 401 1050 q 438 955 438 1014 q 419 877 438 896 q 342 858 401 858 q 265 877 283 858 q 246 955 246 896 q 265 1032 246 1014 q 342 1050 283 1050 z "},"Δ":{"ha":885,"x_min":4,"x_max":876,"o":"m 876 0 l 4 0 l 333 913 q 442 989 367 989 q 544 914 517 989 l 876 0 m 625 163 l 444 725 l 258 163 l 625 163 z "},"Ω":{"ha":913,"x_min":50,"x_max":851,"o":"m 50 0 l 50 169 l 147 169 q 54 497 54 275 l 54 542 q 148 885 54 772 q 445 997 242 997 q 744 883 649 997 q 840 540 840 769 l 840 465 q 753 169 840 265 l 851 169 l 851 0 l 550 0 q 551 70 551 22 q 538 188 551 118 q 622 308 596 221 q 647 497 647 394 l 647 521 q 614 733 647 654 q 447 825 575 825 q 279 733 318 825 q 247 521 247 658 l 247 497 q 364 182 250 236 q 350 69 350 118 q 351 0 350 21 l 50 0 z "},"π":{"ha":822,"x_min":0,"x_max":715,"o":"m 106 0 l 106 554 l 35 554 q 0 597 0 554 l 0 724 l 715 724 l 715 0 l 536 0 l 536 554 l 286 554 l 286 0 l 106 0 z "},"–":{"ha":754,"x_min":69,"x_max":685,"o":"m 685 313 l 69 313 l 69 481 l 685 481 l 685 313 z "},"—":{"ha":1426,"x_min":82,"x_max":1344,"o":"m 1344 314 l 82 314 l 82 488 l 1344 488 l 1344 314 z "},"‘":{"ha":379,"x_min":93,"x_max":290,"o":"m 93 915 l 93 988 q 120 1080 93 1036 q 178 1135 147 1124 l 178 1046 q 186 1012 178 1022 q 228 1001 194 1001 q 276 987 261 1001 q 290 913 290 972 q 272 835 290 854 q 192 817 253 817 q 112 835 131 817 q 93 915 93 854 z "},"’":{"ha":379,"x_min":93,"x_max":290,"o":"m 290 893 l 290 821 q 263 728 290 772 q 206 674 236 685 l 206 763 q 197 797 206 786 q 156 807 189 807 q 108 822 122 807 q 93 895 93 836 q 112 973 93 954 q 192 992 131 992 q 272 973 253 992 q 290 893 290 954 z "},"‚":{"ha":376,"x_min":93,"x_max":290,"o":"m 290 75 l 290 3 q 263 -90 290 -46 q 206 -144 236 -133 l 206 -56 q 197 -22 206 -32 q 156 -11 189 -11 q 108 3 122 -11 q 93 77 93 18 q 112 155 93 136 q 192 174 131 174 q 272 155 253 174 q 290 75 290 136 z "},"“":{"ha":669,"x_min":93,"x_max":588,"o":"m 390 915 l 390 988 q 417 1080 390 1036 q 475 1135 444 1124 l 475 1046 q 483 1012 475 1022 q 525 1001 492 1001 q 573 987 558 1001 q 588 913 588 972 q 569 835 588 854 q 489 817 550 817 q 409 835 428 817 q 390 915 390 854 m 93 915 l 93 988 q 120 1080 93 1036 q 178 1135 147 1124 l 178 1046 q 186 1012 178 1022 q 228 1001 194 1001 q 276 987 261 1001 q 290 913 290 972 q 272 835 290 854 q 192 817 253 817 q 112 835 131 817 q 93 915 93 854 z "},"”":{"ha":669,"x_min":93,"x_max":588,"o":"m 290 893 l 290 821 q 263 728 290 772 q 206 674 236 685 l 206 763 q 197 797 206 786 q 156 807 189 807 q 108 822 122 807 q 93 895 93 836 q 112 973 93 954 q 192 992 131 992 q 272 973 253 992 q 290 893 290 954 m 588 893 l 588 821 q 560 728 588 772 q 503 674 533 685 l 503 763 q 494 797 503 786 q 453 807 486 807 q 405 822 419 807 q 390 895 390 836 q 409 973 390 954 q 489 992 428 992 q 569 973 550 992 q 588 893 588 954 z "},"„":{"ha":674,"x_min":93,"x_max":588,"o":"m 290 75 l 290 3 q 263 -90 290 -46 q 206 -144 236 -133 l 206 -56 q 197 -22 206 -32 q 156 -11 189 -11 q 108 3 122 -11 q 93 77 93 18 q 112 155 93 136 q 192 174 131 174 q 272 155 253 174 q 290 75 290 136 m 588 75 l 588 3 q 560 -90 588 -46 q 503 -144 533 -133 l 503 -56 q 494 -22 503 -32 q 453 -11 486 -11 q 405 3 419 -11 q 390 77 390 18 q 409 155 390 136 q 489 174 428 174 q 569 155 550 174 q 588 75 588 136 z "},"†":{"ha":804,"x_min":93,"x_max":711,"o":"m 711 569 l 524 569 l 478 583 l 492 528 l 492 0 l 311 0 l 311 528 l 325 583 l 274 569 l 93 569 l 93 732 l 268 732 l 325 718 l 311 767 l 311 989 l 492 989 l 492 764 l 478 718 l 524 732 l 711 732 l 711 569 z "},"‡":{"ha":804,"x_min":79,"x_max":725,"o":"m 725 -8 l 492 -8 l 492 -265 l 311 -265 l 311 -8 l 79 -8 l 79 154 l 311 154 l 311 569 l 79 569 l 79 732 l 311 732 l 311 989 l 492 989 l 492 732 l 725 732 l 725 569 l 492 569 l 492 154 l 725 154 l 725 -8 z "},"•":{"ha":685,"x_min":115,"x_max":568,"o":"m 516 635 q 542 608 516 635 q 568 464 568 581 q 516 292 568 347 q 342 238 464 238 q 167 292 219 238 q 115 464 115 347 q 167 635 115 581 q 342 690 219 690 q 516 635 464 690 z "},"…":{"ha":1229,"x_min":88,"x_max":1033,"o":"m 292 187 q 303 176 292 187 q 314 96 314 165 q 292 4 314 26 q 201 -18 271 -18 q 110 4 132 -18 q 88 96 88 26 q 110 187 88 165 q 201 208 132 208 q 292 187 271 208 m 653 187 q 664 176 653 187 q 675 96 675 165 q 653 4 675 26 q 563 -18 632 -18 q 471 4 493 -18 q 449 96 449 26 q 471 187 449 165 q 563 208 493 208 q 653 187 632 208 m 1012 187 q 1023 176 1012 187 q 1033 96 1033 165 q 1012 4 1033 26 q 921 -18 990 -18 q 829 4 851 -18 q 807 96 807 26 q 829 187 807 165 q 921 208 851 208 q 1012 187 990 208 z "},"‰":{"ha":1682,"x_min":101,"x_max":1622,"o":"m 1108 347 l 1108 154 q 907 -8 1108 -8 q 706 154 706 -8 l 706 347 q 907 510 706 510 q 1108 347 1108 510 m 978 174 l 978 328 q 960 379 978 365 q 907 393 943 393 q 853 379 871 393 q 836 328 836 365 l 836 174 q 853 122 836 136 q 907 108 871 108 q 960 122 943 108 q 978 174 978 136 m 1622 347 l 1622 154 q 1421 -8 1622 -8 q 1219 154 1219 -8 l 1219 347 q 1421 510 1219 510 q 1622 347 1622 510 m 1492 174 l 1492 328 q 1474 379 1492 365 q 1421 393 1457 393 q 1367 379 1385 393 q 1350 328 1350 365 l 1350 174 q 1367 122 1350 136 q 1421 108 1385 108 q 1474 122 1457 108 q 1492 174 1492 136 m 374 654 l 374 808 q 356 860 374 846 q 303 874 339 874 q 249 860 267 874 q 232 808 232 846 l 232 654 q 249 603 232 617 q 303 589 267 589 q 356 603 339 589 q 374 654 374 617 m 504 828 l 504 635 q 303 472 504 472 q 101 635 101 472 l 101 828 q 303 989 101 989 l 894 989 l 426 0 l 285 0 l 701 881 l 497 881 q 504 828 504 856 z "},"‹":{"ha":486,"x_min":93,"x_max":421,"o":"m 421 38 l 151 278 q 93 385 93 343 q 154 489 93 428 l 421 726 l 421 511 l 263 382 l 421 253 l 421 38 z "},"›":{"ha":486,"x_min":93,"x_max":421,"o":"m 93 726 l 363 486 q 421 378 421 421 q 360 275 421 336 l 93 38 l 93 253 l 251 382 l 93 511 l 93 726 z "},"⁄":{"ha":289,"x_min":-160,"x_max":449,"o":"m 449 989 l -19 0 l -160 0 l 308 989 l 449 989 z "},"€":{"ha":753,"x_min":14,"x_max":703,"o":"m 14 556 l 14 689 l 82 689 q 178 919 101 842 q 403 997 256 997 q 638 889 551 997 q 699 660 690 825 l 519 660 q 515 699 518 669 q 509 740 511 729 q 500 772 507 750 q 483 801 493 793 q 414 825 456 825 q 272 689 297 825 l 388 689 l 388 556 l 263 556 l 263 460 l 388 460 l 388 326 l 267 326 q 414 164 288 164 q 514 236 499 164 q 522 320 522 274 q 524 383 522 367 l 703 383 q 697 274 700 307 q 680 188 694 242 q 638 100 665 135 q 414 -8 551 -8 q 167 74 243 -8 q 78 326 90 156 l 14 326 l 14 460 l 75 460 l 75 556 l 14 556 z "},"ℓ":{"ha":672,"x_min":38,"x_max":599,"o":"m 554 171 l 585 15 q 363 -22 479 -22 q 229 31 288 -22 q 151 164 171 83 q 92 125 108 135 l 38 274 q 110 328 93 307 q 93 560 93 389 q 109 724 93 646 q 147 848 125 801 q 200 933 168 894 q 386 1019 267 1019 q 534 953 469 1019 q 599 781 599 886 q 528 508 599 635 q 299 251 457 381 q 327 181 301 208 q 393 153 353 153 q 554 171 510 153 m 271 415 q 429 726 429 610 q 358 843 429 843 q 275 706 300 843 q 263 555 263 628 q 271 415 263 482 z "},"™":{"ha":1283,"x_min":63,"x_max":1194,"o":"m 1194 396 l 1063 396 l 1063 746 l 951 528 q 892 492 932 492 q 835 528 851 492 l 724 746 l 724 396 l 592 396 l 592 989 l 724 989 l 868 718 q 893 696 881 696 q 918 719 906 696 l 1063 989 l 1194 989 l 1194 396 m 500 871 l 347 871 l 347 396 l 215 396 l 215 871 l 63 871 l 63 989 l 500 989 l 500 871 z "},"℮":{"ha":1399,"x_min":125,"x_max":1274,"o":"m 1274 474 l 343 474 q 335 467 335 474 l 335 186 q 349 154 335 164 q 700 0 499 0 q 904 46 808 0 q 1069 171 1000 92 l 1154 171 q 955 24 1075 78 q 699 -29 835 -29 q 292 122 460 -29 q 125 487 125 272 q 292 853 125 701 q 698 1004 460 1004 q 1105 853 936 1004 q 1274 488 1274 701 l 1274 474 m 1063 510 l 1063 794 q 1049 828 1063 811 q 699 975 899 975 q 350 822 500 975 q 335 788 335 808 l 335 510 q 343 501 335 501 l 1056 501 q 1063 510 1063 501 z "},"∂":{"ha":771,"x_min":61,"x_max":696,"o":"m 390 556 q 242 354 242 556 q 271 213 242 257 q 378 168 300 168 q 403 171 385 169 q 426 173 421 172 q 446 176 432 174 q 466 181 460 179 q 483 188 472 183 q 515 211 497 193 l 515 514 q 390 556 457 556 m 515 676 q 469 806 515 750 q 340 863 422 863 q 218 846 286 863 l 156 994 q 371 1024 288 1024 q 610 928 525 1024 q 696 597 696 832 l 696 151 q 381 -8 556 -8 q 133 88 206 -8 q 61 354 61 185 q 108 592 61 488 q 190 684 135 650 q 347 718 244 718 q 515 676 449 718 z "},"∏":{"ha":1157,"x_min":115,"x_max":836,"o":"m 836 -236 l 643 -236 l 643 819 l 308 819 l 308 -236 l 115 -236 l 115 990 l 836 990 l 836 -236 z "},"∑":{"ha":790,"x_min":54,"x_max":725,"o":"m 725 -237 l 61 -237 l 60 -96 l 318 389 l 54 847 l 54 989 l 708 989 l 708 829 l 281 829 l 463 513 q 494 398 494 458 q 465 271 494 338 l 283 -78 l 724 -78 l 725 -237 z "},"−":{"ha":754,"x_min":69,"x_max":685,"o":"m 685 313 l 69 313 l 69 481 l 685 481 l 685 313 z "},"√":{"ha":960,"x_min":47,"x_max":899,"o":"m 899 817 l 642 817 l 389 0 l 243 0 l 47 544 l 243 544 l 317 317 l 501 989 l 899 989 l 899 817 z "},"∞":{"ha":1013,"x_min":63,"x_max":956,"o":"m 901 594 q 928 563 901 594 q 956 429 956 531 q 901 265 956 328 q 740 203 847 203 q 508 315 607 203 q 278 203 410 203 q 117 265 171 203 q 63 429 63 328 q 117 594 63 531 q 278 658 171 658 q 508 544 408 658 q 740 658 608 658 q 901 594 847 658 m 789 363 q 799 374 789 363 q 810 429 810 386 q 789 497 810 472 q 732 521 768 521 q 590 429 665 521 q 732 339 665 339 q 789 363 768 339 m 414 429 q 272 522 339 522 q 216 497 236 522 q 196 429 196 472 q 216 363 196 386 q 272 339 236 339 q 414 429 339 339 z "},"∫":{"ha":667,"x_min":79,"x_max":601,"o":"m 601 854 l 533 854 q 459 835 483 854 q 435 769 435 817 l 435 -21 q 197 -258 435 -258 l 79 -258 l 79 -106 l 147 -106 q 222 -87 197 -106 q 246 -22 246 -69 l 246 768 q 483 1007 246 1007 l 601 1007 l 601 854 z "},"≈":{"ha":842,"x_min":51,"x_max":790,"o":"m 675 660 l 790 546 q 674 453 725 481 q 554 426 624 426 q 410 466 485 426 q 279 506 335 506 q 165 447 224 506 l 51 561 q 167 654 118 628 q 286 681 217 681 q 432 640 356 681 q 562 600 508 600 q 675 660 615 600 m 676 346 l 790 232 q 674 139 724 165 q 556 113 625 113 q 410 153 486 113 q 280 193 333 193 q 167 133 226 193 l 51 247 q 168 340 117 313 q 288 367 219 367 q 432 327 357 367 q 563 288 507 288 q 676 346 618 288 z "},"≠":{"ha":836,"x_min":69,"x_max":767,"o":"m 767 161 l 322 161 l 179 -18 l 69 68 l 146 161 l 69 161 l 69 331 l 276 331 l 385 463 l 69 463 l 69 632 l 514 632 l 657 811 l 767 725 l 690 632 l 767 632 l 767 463 l 561 463 l 453 331 l 767 331 l 767 161 z "},"≤":{"ha":756,"x_min":69,"x_max":685,"o":"m 618 399 l 618 218 l 83 467 l 83 614 l 618 861 l 618 681 l 268 539 l 618 399 m 685 0 l 69 0 l 69 169 l 685 169 l 685 0 z "},"≥":{"ha":764,"x_min":69,"x_max":685,"o":"m 136 218 l 136 399 l 486 539 l 136 681 l 136 861 l 671 614 l 671 467 l 136 218 m 685 0 l 69 0 l 69 169 l 685 169 l 685 0 z "},"◊":{"ha":881,"x_min":76,"x_max":807,"o":"m 807 488 l 529 29 q 440 -28 485 -28 q 356 29 396 -28 l 76 488 l 344 942 q 443 1000 392 1000 q 540 942 494 1000 l 807 488 m 604 488 l 442 799 l 279 488 l 442 189 l 604 488 z "},"ﬀ":{"ha":938,"x_min":35,"x_max":885,"o":"m 885 625 l 738 625 l 738 0 l 557 0 l 557 625 l 290 625 l 290 0 l 110 0 l 110 625 l 35 625 l 35 763 l 110 763 l 110 839 q 164 985 110 924 q 321 1046 218 1046 l 438 1046 l 438 893 l 353 893 q 290 828 290 893 l 290 763 l 557 763 l 557 839 q 611 985 557 924 q 768 1046 665 1046 l 885 1046 l 885 893 l 800 893 q 738 828 738 893 l 738 763 l 885 763 l 885 625 z "},"ﬁ":{"ha":836,"x_min":35,"x_max":751,"o":"m 735 0 l 554 0 l 554 625 l 290 625 l 290 0 l 110 0 l 110 625 l 35 625 l 35 763 l 110 763 l 110 839 q 164 985 110 924 q 321 1046 218 1046 l 438 1046 l 438 893 l 353 893 q 290 828 290 893 l 290 763 l 735 763 l 735 0 m 647 1093 q 679 1093 647 1093 q 731 1073 711 1093 q 751 988 751 1053 q 731 903 751 924 q 647 883 711 883 q 563 904 583 883 q 542 989 542 925 q 562 1073 542 1053 q 647 1093 582 1093 z "},"ﬂ":{"ha":831,"x_min":35,"x_max":735,"o":"m 735 0 l 554 0 l 554 893 l 353 893 q 290 828 290 893 l 290 763 l 438 763 l 438 625 l 290 625 l 290 0 l 110 0 l 110 625 l 35 625 l 35 763 l 110 763 l 110 839 q 164 984 110 924 q 321 1044 218 1044 l 735 1044 l 735 0 z "},"ﬃ":{"ha":1265,"x_min":35,"x_max":1194,"o":"m 1090 1093 q 1123 1093 1090 1093 q 1175 1073 1156 1093 q 1194 988 1194 1053 q 1174 903 1194 924 q 1090 883 1154 883 q 1005 904 1025 883 q 985 989 985 925 q 1005 1073 985 1053 q 1090 1093 1025 1093 m 1178 0 l 997 0 l 997 625 l 733 625 l 733 0 l 553 0 l 553 625 l 290 625 l 290 0 l 110 0 l 110 625 l 35 625 l 35 763 l 110 763 l 110 839 q 164 985 110 924 q 321 1046 218 1046 l 438 1046 l 438 893 l 353 893 q 290 828 290 893 l 290 763 l 553 763 l 553 839 q 607 985 553 924 q 764 1046 661 1046 l 881 1046 l 881 893 l 796 893 q 733 828 733 893 l 733 763 l 1178 763 l 1178 0 z "},"ﬄ":{"ha":1258,"x_min":35,"x_max":1176,"o":"m 1176 0 l 996 -1 l 996 893 l 794 893 q 732 828 732 893 l 732 763 l 879 763 l 879 625 l 732 625 l 732 0 l 551 0 l 551 625 l 290 625 l 290 0 l 110 0 l 110 625 l 35 625 l 35 763 l 110 763 l 110 839 q 164 985 110 924 q 321 1046 218 1046 l 438 1046 l 438 893 l 353 893 q 290 828 290 893 l 290 763 l 551 763 l 551 839 q 606 984 551 924 q 763 1044 660 1044 l 1176 1044 l 1176 0 z "}}}
